<mxfile host="app.diagrams.net" modified="2020-09-28T20:14:39.062Z" agent="5.0 (Macintosh; Intel Mac OS X 10_13_6) AppleWebKit/605.1.15 (KHTML, like Gecko) Version/13.1.2 Safari/605.1.15" etag="YXYj9-agJP645aQoJlyz" version="13.7.6" type="github">
  <diagram id="SoXRup_brWLeyRarDDfo" name="Page-1">
    <mxGraphModel dx="1313" dy="1292" grid="1" gridSize="10" guides="1" tooltips="1" connect="1" arrows="1" fold="1" page="1" pageScale="1" pageWidth="1600" pageHeight="1200" math="0" shadow="0">
      <root>
        <mxCell id="0" />
        <mxCell id="1" parent="0" />
        <mxCell id="7ul09Yu6RcDukH9-tw2m-157" value="" style="rounded=0;whiteSpace=wrap;html=1;fontSize=14;align=center;fillColor=#e1d5e7;strokeColor=#9673a6;" vertex="1" parent="1">
          <mxGeometry x="1000" y="770" width="570" height="460" as="geometry" />
        </mxCell>
        <mxCell id="7ul09Yu6RcDukH9-tw2m-152" value="" style="rounded=0;whiteSpace=wrap;html=1;fontSize=14;align=center;fillColor=#dae8fc;strokeColor=#6c8ebf;" vertex="1" parent="1">
          <mxGeometry x="1180" y="9.97" width="270" height="750.03" as="geometry" />
        </mxCell>
        <mxCell id="7ul09Yu6RcDukH9-tw2m-96" value="" style="rounded=0;whiteSpace=wrap;html=1;fillColor=#d5e8d4;strokeColor=#82b366;" vertex="1" parent="1">
          <mxGeometry x="390" y="110" width="600" height="1180" as="geometry" />
        </mxCell>
        <mxCell id="7ul09Yu6RcDukH9-tw2m-94" value="" style="rounded=0;whiteSpace=wrap;html=1;fillColor=#f8cecc;strokeColor=#b85450;" vertex="1" parent="1">
          <mxGeometry x="40" y="110" width="340" height="1180" as="geometry" />
        </mxCell>
        <mxCell id="7ul09Yu6RcDukH9-tw2m-10" style="edgeStyle=orthogonalEdgeStyle;rounded=0;orthogonalLoop=1;jettySize=auto;html=1;entryX=0.75;entryY=0;entryDx=0;entryDy=0;startArrow=classic;startFill=1;strokeWidth=3;" edge="1" parent="1" target="7ul09Yu6RcDukH9-tw2m-3">
          <mxGeometry relative="1" as="geometry">
            <mxPoint x="182" y="508" as="sourcePoint" />
            <Array as="points">
              <mxPoint x="264" y="508" />
            </Array>
          </mxGeometry>
        </mxCell>
        <mxCell id="7ul09Yu6RcDukH9-tw2m-76" value="/8" style="edgeLabel;html=1;align=center;verticalAlign=middle;resizable=0;points=[];" vertex="1" connectable="0" parent="7ul09Yu6RcDukH9-tw2m-10">
          <mxGeometry x="0.2391" y="-2" relative="1" as="geometry">
            <mxPoint as="offset" />
          </mxGeometry>
        </mxCell>
        <mxCell id="7ul09Yu6RcDukH9-tw2m-1" value="1J1 - 40 pin header" style="rounded=0;whiteSpace=wrap;html=1;horizontal=0;" vertex="1" parent="1">
          <mxGeometry x="110" y="240" width="70" height="400" as="geometry" />
        </mxCell>
        <mxCell id="7ul09Yu6RcDukH9-tw2m-7" style="edgeStyle=orthogonalEdgeStyle;rounded=0;orthogonalLoop=1;jettySize=auto;html=1;exitX=0.75;exitY=0;exitDx=0;exitDy=0;strokeWidth=3;" edge="1" parent="1" source="7ul09Yu6RcDukH9-tw2m-2">
          <mxGeometry relative="1" as="geometry">
            <mxPoint x="179" y="258" as="targetPoint" />
            <Array as="points">
              <mxPoint x="179" y="258" />
            </Array>
          </mxGeometry>
        </mxCell>
        <mxCell id="7ul09Yu6RcDukH9-tw2m-26" value="/ 8" style="edgeLabel;html=1;align=center;verticalAlign=middle;resizable=0;points=[];" vertex="1" connectable="0" parent="7ul09Yu6RcDukH9-tw2m-7">
          <mxGeometry x="0.1859" y="1" relative="1" as="geometry">
            <mxPoint as="offset" />
          </mxGeometry>
        </mxCell>
        <mxCell id="7ul09Yu6RcDukH9-tw2m-8" style="edgeStyle=orthogonalEdgeStyle;rounded=0;orthogonalLoop=1;jettySize=auto;html=1;exitX=0.112;exitY=0.028;exitDx=0;exitDy=0;strokeWidth=3;exitPerimeter=0;" edge="1" parent="1" source="7ul09Yu6RcDukH9-tw2m-2">
          <mxGeometry relative="1" as="geometry">
            <mxPoint x="180" y="366" as="targetPoint" />
            <Array as="points">
              <mxPoint x="180" y="366" />
            </Array>
          </mxGeometry>
        </mxCell>
        <mxCell id="7ul09Yu6RcDukH9-tw2m-77" value="/2" style="edgeLabel;html=1;align=center;verticalAlign=middle;resizable=0;points=[];" vertex="1" connectable="0" parent="7ul09Yu6RcDukH9-tw2m-8">
          <mxGeometry x="-0.1273" y="2" relative="1" as="geometry">
            <mxPoint as="offset" />
          </mxGeometry>
        </mxCell>
        <mxCell id="7ul09Yu6RcDukH9-tw2m-2" value="&lt;span style=&quot;color: rgb(29 , 28 , 29) ; font-family: , &amp;#34;applelogo&amp;#34; , sans-serif ; font-size: 15px ; text-align: left ; background-color: rgb(255 , 255 , 255)&quot;&gt;SN74LVC16T245&lt;/span&gt;" style="rounded=0;whiteSpace=wrap;html=1;rotation=-90;" vertex="1" parent="1">
          <mxGeometry x="290" y="270" width="170" height="60" as="geometry" />
        </mxCell>
        <mxCell id="7ul09Yu6RcDukH9-tw2m-3" value="&lt;span style=&quot;color: rgb(29 , 28 , 29) ; font-family: , &amp;#34;applelogo&amp;#34; , sans-serif ; font-size: 15px ; text-align: left ; background-color: rgb(255 , 255 , 255)&quot;&gt;SN74LVC16T245&lt;/span&gt;" style="rounded=0;whiteSpace=wrap;html=1;rotation=-90;" vertex="1" parent="1">
          <mxGeometry x="290" y="520" width="170" height="60" as="geometry" />
        </mxCell>
        <mxCell id="7ul09Yu6RcDukH9-tw2m-4" value="&lt;span style=&quot;color: rgb(29 , 28 , 29) ; font-family: , &amp;#34;applelogo&amp;#34; , sans-serif ; font-size: 15px ; text-align: left ; background-color: rgb(255 , 255 , 255)&quot;&gt;SN74LVC16T245&lt;/span&gt;" style="rounded=0;whiteSpace=wrap;html=1;rotation=-90;" vertex="1" parent="1">
          <mxGeometry x="290" y="730" width="170" height="60" as="geometry" />
        </mxCell>
        <mxCell id="7ul09Yu6RcDukH9-tw2m-15" style="edgeStyle=orthogonalEdgeStyle;rounded=0;orthogonalLoop=1;jettySize=auto;html=1;exitX=0;exitY=0.077;exitDx=0;exitDy=0;entryX=0.75;entryY=1;entryDx=0;entryDy=0;startArrow=none;startFill=0;endArrow=classic;endFill=1;exitPerimeter=0;strokeWidth=3;sketch=0;" edge="1" parent="1" source="7ul09Yu6RcDukH9-tw2m-13" target="7ul09Yu6RcDukH9-tw2m-2">
          <mxGeometry relative="1" as="geometry" />
        </mxCell>
        <mxCell id="7ul09Yu6RcDukH9-tw2m-28" value="/ 8" style="edgeLabel;html=1;align=center;verticalAlign=middle;resizable=0;points=[];" vertex="1" connectable="0" parent="7ul09Yu6RcDukH9-tw2m-15">
          <mxGeometry x="-0.2886" y="-2" relative="1" as="geometry">
            <mxPoint as="offset" />
          </mxGeometry>
        </mxCell>
        <mxCell id="7ul09Yu6RcDukH9-tw2m-16" style="edgeStyle=orthogonalEdgeStyle;rounded=0;orthogonalLoop=1;jettySize=auto;html=1;startArrow=none;startFill=0;endArrow=classic;endFill=1;strokeWidth=3;exitX=-0.017;exitY=0.192;exitDx=0;exitDy=0;exitPerimeter=0;" edge="1" parent="1" source="7ul09Yu6RcDukH9-tw2m-31">
          <mxGeometry relative="1" as="geometry">
            <mxPoint x="700" y="440" as="sourcePoint" />
            <mxPoint x="405" y="360" as="targetPoint" />
            <Array as="points">
              <mxPoint x="553" y="428" />
              <mxPoint x="553" y="360" />
              <mxPoint x="405" y="360" />
            </Array>
          </mxGeometry>
        </mxCell>
        <mxCell id="7ul09Yu6RcDukH9-tw2m-29" value="/ 5" style="edgeLabel;html=1;align=center;verticalAlign=middle;resizable=0;points=[];" vertex="1" connectable="0" parent="7ul09Yu6RcDukH9-tw2m-16">
          <mxGeometry x="-0.3054" y="1" relative="1" as="geometry">
            <mxPoint as="offset" />
          </mxGeometry>
        </mxCell>
        <mxCell id="7ul09Yu6RcDukH9-tw2m-13" value="Arduino DUE" style="rounded=0;whiteSpace=wrap;html=1;" vertex="1" parent="1">
          <mxGeometry x="700" y="250" width="250" height="470" as="geometry" />
        </mxCell>
        <mxCell id="7ul09Yu6RcDukH9-tw2m-17" value="DIR1" style="rounded=0;whiteSpace=wrap;html=1;" vertex="1" parent="1">
          <mxGeometry x="390" y="210" width="30" height="20" as="geometry" />
        </mxCell>
        <mxCell id="7ul09Yu6RcDukH9-tw2m-18" value="DIR2" style="rounded=0;whiteSpace=wrap;html=1;" vertex="1" parent="1">
          <mxGeometry x="390" y="300" width="30" height="20" as="geometry" />
        </mxCell>
        <mxCell id="7ul09Yu6RcDukH9-tw2m-19" value="DIR1" style="rounded=0;whiteSpace=wrap;html=1;" vertex="1" parent="1">
          <mxGeometry x="400" y="460" width="30" height="20" as="geometry" />
        </mxCell>
        <mxCell id="7ul09Yu6RcDukH9-tw2m-71" style="edgeStyle=orthogonalEdgeStyle;rounded=0;sketch=0;jumpStyle=arc;jumpSize=9;orthogonalLoop=1;jettySize=auto;html=1;exitX=1;exitY=0.5;exitDx=0;exitDy=0;entryX=0.5;entryY=0;entryDx=0;entryDy=0;entryPerimeter=0;startArrow=none;startFill=0;endArrow=none;endFill=0;strokeWidth=1;" edge="1" parent="1" source="7ul09Yu6RcDukH9-tw2m-20" target="7ul09Yu6RcDukH9-tw2m-70">
          <mxGeometry relative="1" as="geometry" />
        </mxCell>
        <mxCell id="7ul09Yu6RcDukH9-tw2m-20" value="DIR2" style="rounded=0;whiteSpace=wrap;html=1;" vertex="1" parent="1">
          <mxGeometry x="400" y="550" width="30" height="20" as="geometry" />
        </mxCell>
        <mxCell id="7ul09Yu6RcDukH9-tw2m-21" value="DIR1" style="rounded=0;whiteSpace=wrap;html=1;" vertex="1" parent="1">
          <mxGeometry x="400" y="670" width="30" height="20" as="geometry" />
        </mxCell>
        <mxCell id="7ul09Yu6RcDukH9-tw2m-22" value="DIR2" style="rounded=0;whiteSpace=wrap;html=1;" vertex="1" parent="1">
          <mxGeometry x="400" y="760" width="30" height="20" as="geometry" />
        </mxCell>
        <mxCell id="7ul09Yu6RcDukH9-tw2m-23" value="+3.3v" style="pointerEvents=1;verticalLabelPosition=top;shadow=0;dashed=0;align=center;html=1;verticalAlign=bottom;shape=mxgraph.electrical.signal_sources.signal_ground;rotation=-180;horizontal=0;labelPosition=center;textDirection=ltr;" vertex="1" parent="1">
          <mxGeometry x="430" y="170" width="15" height="20" as="geometry" />
        </mxCell>
        <mxCell id="7ul09Yu6RcDukH9-tw2m-24" value="" style="endArrow=none;html=1;exitX=1;exitY=0.5;exitDx=0;exitDy=0;entryX=0.5;entryY=0;entryDx=0;entryDy=0;entryPerimeter=0;edgeStyle=orthogonalEdgeStyle;rounded=0;" edge="1" parent="1" source="7ul09Yu6RcDukH9-tw2m-17" target="7ul09Yu6RcDukH9-tw2m-23">
          <mxGeometry width="50" height="50" relative="1" as="geometry">
            <mxPoint x="440" y="200" as="sourcePoint" />
            <mxPoint x="490" y="150" as="targetPoint" />
          </mxGeometry>
        </mxCell>
        <mxCell id="7ul09Yu6RcDukH9-tw2m-25" value="" style="endArrow=none;html=1;exitX=1;exitY=0.5;exitDx=0;exitDy=0;edgeStyle=orthogonalEdgeStyle;rounded=0;entryX=0.504;entryY=0.25;entryDx=0;entryDy=0;entryPerimeter=0;" edge="1" parent="1" source="7ul09Yu6RcDukH9-tw2m-18" target="7ul09Yu6RcDukH9-tw2m-23">
          <mxGeometry width="50" height="50" relative="1" as="geometry">
            <mxPoint x="430" y="230" as="sourcePoint" />
            <mxPoint x="440" y="220" as="targetPoint" />
          </mxGeometry>
        </mxCell>
        <mxCell id="7ul09Yu6RcDukH9-tw2m-30" value="Port A" style="rounded=0;whiteSpace=wrap;html=1;" vertex="1" parent="1">
          <mxGeometry x="700" y="270" width="40" height="40" as="geometry" />
        </mxCell>
        <mxCell id="7ul09Yu6RcDukH9-tw2m-31" value="Port B" style="rounded=0;whiteSpace=wrap;html=1;" vertex="1" parent="1">
          <mxGeometry x="700" y="420" width="40" height="40" as="geometry" />
        </mxCell>
        <mxCell id="7ul09Yu6RcDukH9-tw2m-32" value="Port C" style="rounded=0;whiteSpace=wrap;html=1;" vertex="1" parent="1">
          <mxGeometry x="700" y="490" width="40" height="40" as="geometry" />
        </mxCell>
        <mxCell id="7ul09Yu6RcDukH9-tw2m-33" style="edgeStyle=orthogonalEdgeStyle;rounded=0;orthogonalLoop=1;jettySize=auto;html=1;exitX=0;exitY=0.5;exitDx=0;exitDy=0;startArrow=classic;startFill=1;endArrow=classic;endFill=1;strokeWidth=3;" edge="1" parent="1" source="7ul09Yu6RcDukH9-tw2m-32">
          <mxGeometry relative="1" as="geometry">
            <mxPoint x="695" y="465" as="sourcePoint" />
            <mxPoint x="405" y="508" as="targetPoint" />
            <Array as="points">
              <mxPoint x="553" y="510" />
              <mxPoint x="553" y="508" />
            </Array>
          </mxGeometry>
        </mxCell>
        <mxCell id="7ul09Yu6RcDukH9-tw2m-34" value="/ 8" style="edgeLabel;html=1;align=center;verticalAlign=middle;resizable=0;points=[];" vertex="1" connectable="0" parent="7ul09Yu6RcDukH9-tw2m-33">
          <mxGeometry x="-0.3054" y="1" relative="1" as="geometry">
            <mxPoint as="offset" />
          </mxGeometry>
        </mxCell>
        <mxCell id="7ul09Yu6RcDukH9-tw2m-35" value="" style="endArrow=classic;html=1;strokeWidth=1;exitX=0;exitY=0.5;exitDx=0;exitDy=0;entryX=1;entryY=0.5;entryDx=0;entryDy=0;edgeStyle=orthogonalEdgeStyle;rounded=0;jumpStyle=arc;jumpSize=9;" edge="1" parent="1" source="7ul09Yu6RcDukH9-tw2m-31" target="7ul09Yu6RcDukH9-tw2m-19">
          <mxGeometry width="50" height="50" relative="1" as="geometry">
            <mxPoint x="440" y="530" as="sourcePoint" />
            <mxPoint x="490" y="480" as="targetPoint" />
            <Array as="points">
              <mxPoint x="460" y="440" />
              <mxPoint x="460" y="470" />
            </Array>
          </mxGeometry>
        </mxCell>
        <mxCell id="7ul09Yu6RcDukH9-tw2m-37" value="/ 1" style="edgeLabel;html=1;align=center;verticalAlign=middle;resizable=0;points=[];" vertex="1" connectable="0" parent="7ul09Yu6RcDukH9-tw2m-35">
          <mxGeometry x="-0.2647" relative="1" as="geometry">
            <mxPoint as="offset" />
          </mxGeometry>
        </mxCell>
        <mxCell id="7ul09Yu6RcDukH9-tw2m-36" value="Port D" style="rounded=0;whiteSpace=wrap;html=1;" vertex="1" parent="1">
          <mxGeometry x="700" y="560" width="40" height="40" as="geometry" />
        </mxCell>
        <mxCell id="7ul09Yu6RcDukH9-tw2m-41" value="1J6 - Display Strobe A" style="rounded=0;whiteSpace=wrap;html=1;horizontal=0;" vertex="1" parent="1">
          <mxGeometry x="110" y="680" width="70" height="140" as="geometry" />
        </mxCell>
        <mxCell id="7ul09Yu6RcDukH9-tw2m-42" value="1J7 - Display Strobe B" style="rounded=0;whiteSpace=wrap;html=1;horizontal=0;" vertex="1" parent="1">
          <mxGeometry x="110" y="840" width="70" height="130" as="geometry" />
        </mxCell>
        <mxCell id="7ul09Yu6RcDukH9-tw2m-43" style="edgeStyle=orthogonalEdgeStyle;rounded=0;orthogonalLoop=1;jettySize=auto;html=1;exitX=0.75;exitY=0;exitDx=0;exitDy=0;strokeWidth=3;entryX=1;entryY=0.5;entryDx=0;entryDy=0;" edge="1" parent="1" source="7ul09Yu6RcDukH9-tw2m-4" target="7ul09Yu6RcDukH9-tw2m-41">
          <mxGeometry relative="1" as="geometry">
            <mxPoint x="355" y="267.5" as="sourcePoint" />
            <mxPoint x="220" y="760" as="targetPoint" />
            <Array as="points">
              <mxPoint x="240" y="718" />
              <mxPoint x="240" y="750" />
            </Array>
          </mxGeometry>
        </mxCell>
        <mxCell id="7ul09Yu6RcDukH9-tw2m-44" value="/ 8" style="edgeLabel;html=1;align=center;verticalAlign=middle;resizable=0;points=[];" vertex="1" connectable="0" parent="7ul09Yu6RcDukH9-tw2m-43">
          <mxGeometry x="0.1859" y="1" relative="1" as="geometry">
            <mxPoint as="offset" />
          </mxGeometry>
        </mxCell>
        <mxCell id="7ul09Yu6RcDukH9-tw2m-45" style="edgeStyle=orthogonalEdgeStyle;rounded=0;orthogonalLoop=1;jettySize=auto;html=1;exitX=0.75;exitY=0;exitDx=0;exitDy=0;strokeWidth=3;entryX=1;entryY=0.5;entryDx=0;entryDy=0;" edge="1" parent="1" target="7ul09Yu6RcDukH9-tw2m-42">
          <mxGeometry relative="1" as="geometry">
            <mxPoint x="346" y="800" as="sourcePoint" />
            <mxPoint x="180" y="800.5" as="targetPoint" />
            <Array as="points">
              <mxPoint x="340" y="800" />
              <mxPoint x="340" y="830" />
              <mxPoint x="240" y="830" />
              <mxPoint x="240" y="905" />
            </Array>
          </mxGeometry>
        </mxCell>
        <mxCell id="7ul09Yu6RcDukH9-tw2m-46" value="/ 8" style="edgeLabel;html=1;align=center;verticalAlign=middle;resizable=0;points=[];" vertex="1" connectable="0" parent="7ul09Yu6RcDukH9-tw2m-45">
          <mxGeometry x="0.1859" y="1" relative="1" as="geometry">
            <mxPoint as="offset" />
          </mxGeometry>
        </mxCell>
        <mxCell id="7ul09Yu6RcDukH9-tw2m-48" value="+3.3v" style="pointerEvents=1;verticalLabelPosition=top;shadow=0;dashed=0;align=center;html=1;verticalAlign=bottom;shape=mxgraph.electrical.signal_sources.signal_ground;rotation=-180;horizontal=0;labelPosition=center;textDirection=ltr;" vertex="1" parent="1">
          <mxGeometry x="440" y="649.97" width="15" height="20" as="geometry" />
        </mxCell>
        <mxCell id="7ul09Yu6RcDukH9-tw2m-49" value="" style="endArrow=none;html=1;strokeWidth=1;exitX=1;exitY=0.5;exitDx=0;exitDy=0;entryX=0.5;entryY=0;entryDx=0;entryDy=0;entryPerimeter=0;edgeStyle=orthogonalEdgeStyle;rounded=0;" edge="1" parent="1" target="7ul09Yu6RcDukH9-tw2m-48">
          <mxGeometry width="50" height="50" relative="1" as="geometry">
            <mxPoint x="430" y="679.97" as="sourcePoint" />
            <mxPoint x="490" y="519.97" as="targetPoint" />
          </mxGeometry>
        </mxCell>
        <mxCell id="7ul09Yu6RcDukH9-tw2m-50" value="+3.3v" style="pointerEvents=1;verticalLabelPosition=top;shadow=0;dashed=0;align=center;html=1;verticalAlign=bottom;shape=mxgraph.electrical.signal_sources.signal_ground;rotation=-180;horizontal=0;labelPosition=center;textDirection=ltr;" vertex="1" parent="1">
          <mxGeometry x="440" y="744.99" width="15" height="20" as="geometry" />
        </mxCell>
        <mxCell id="7ul09Yu6RcDukH9-tw2m-51" value="" style="endArrow=none;html=1;strokeWidth=1;exitX=1;exitY=0.5;exitDx=0;exitDy=0;entryX=0.5;entryY=0;entryDx=0;entryDy=0;entryPerimeter=0;edgeStyle=orthogonalEdgeStyle;rounded=0;" edge="1" parent="1" target="7ul09Yu6RcDukH9-tw2m-50">
          <mxGeometry width="50" height="50" relative="1" as="geometry">
            <mxPoint x="430" y="774.99" as="sourcePoint" />
            <mxPoint x="490" y="614.99" as="targetPoint" />
          </mxGeometry>
        </mxCell>
        <mxCell id="7ul09Yu6RcDukH9-tw2m-56" style="edgeStyle=orthogonalEdgeStyle;rounded=0;orthogonalLoop=1;jettySize=auto;html=1;exitX=0;exitY=0.5;exitDx=0;exitDy=0;entryX=0.75;entryY=1;entryDx=0;entryDy=0;startArrow=none;startFill=0;endArrow=classic;endFill=1;strokeWidth=3;" edge="1" parent="1" source="7ul09Yu6RcDukH9-tw2m-36" target="7ul09Yu6RcDukH9-tw2m-4">
          <mxGeometry relative="1" as="geometry">
            <mxPoint x="700" y="649.9300000000001" as="sourcePoint" />
            <mxPoint x="405" y="624.9300000000001" as="targetPoint" />
          </mxGeometry>
        </mxCell>
        <mxCell id="7ul09Yu6RcDukH9-tw2m-57" value="/ 8" style="edgeLabel;html=1;align=center;verticalAlign=middle;resizable=0;points=[];" vertex="1" connectable="0" parent="7ul09Yu6RcDukH9-tw2m-56">
          <mxGeometry x="-0.3054" y="1" relative="1" as="geometry">
            <mxPoint as="offset" />
          </mxGeometry>
        </mxCell>
        <mxCell id="7ul09Yu6RcDukH9-tw2m-58" value="Port E" style="rounded=0;whiteSpace=wrap;html=1;" vertex="1" parent="1">
          <mxGeometry x="700" y="629.97" width="40" height="40" as="geometry" />
        </mxCell>
        <mxCell id="7ul09Yu6RcDukH9-tw2m-59" value="Port F" style="rounded=0;whiteSpace=wrap;html=1;" vertex="1" parent="1">
          <mxGeometry x="740" y="680" width="40" height="40" as="geometry" />
        </mxCell>
        <mxCell id="7ul09Yu6RcDukH9-tw2m-61" style="edgeStyle=orthogonalEdgeStyle;rounded=0;orthogonalLoop=1;jettySize=auto;html=1;exitX=0;exitY=0.5;exitDx=0;exitDy=0;entryX=0.25;entryY=1;entryDx=0;entryDy=0;startArrow=none;startFill=0;endArrow=classic;endFill=1;strokeWidth=3;" edge="1" parent="1" source="7ul09Yu6RcDukH9-tw2m-58" target="7ul09Yu6RcDukH9-tw2m-4">
          <mxGeometry relative="1" as="geometry">
            <mxPoint x="710" y="659.9300000000001" as="sourcePoint" />
            <mxPoint x="415" y="727.5" as="targetPoint" />
            <Array as="points">
              <mxPoint x="630" y="650" />
              <mxPoint x="630" y="803" />
            </Array>
          </mxGeometry>
        </mxCell>
        <mxCell id="7ul09Yu6RcDukH9-tw2m-62" value="/ 8" style="edgeLabel;html=1;align=center;verticalAlign=middle;resizable=0;points=[];" vertex="1" connectable="0" parent="7ul09Yu6RcDukH9-tw2m-61">
          <mxGeometry x="-0.3054" y="1" relative="1" as="geometry">
            <mxPoint as="offset" />
          </mxGeometry>
        </mxCell>
        <mxCell id="7ul09Yu6RcDukH9-tw2m-63" value="A" style="text;html=1;strokeColor=none;fillColor=none;align=center;verticalAlign=middle;whiteSpace=wrap;rounded=0;" vertex="1" parent="1">
          <mxGeometry x="380" y="370" width="40" height="20" as="geometry" />
        </mxCell>
        <mxCell id="7ul09Yu6RcDukH9-tw2m-64" value="B" style="text;html=1;strokeColor=none;fillColor=none;align=center;verticalAlign=middle;whiteSpace=wrap;rounded=0;" vertex="1" parent="1">
          <mxGeometry x="330" y="370" width="40" height="20" as="geometry" />
        </mxCell>
        <mxCell id="7ul09Yu6RcDukH9-tw2m-65" value="A" style="text;html=1;strokeColor=none;fillColor=none;align=center;verticalAlign=middle;whiteSpace=wrap;rounded=0;" vertex="1" parent="1">
          <mxGeometry x="380" y="620" width="40" height="20" as="geometry" />
        </mxCell>
        <mxCell id="7ul09Yu6RcDukH9-tw2m-66" value="B" style="text;html=1;strokeColor=none;fillColor=none;align=center;verticalAlign=middle;whiteSpace=wrap;rounded=0;" vertex="1" parent="1">
          <mxGeometry x="330" y="620" width="40" height="20" as="geometry" />
        </mxCell>
        <mxCell id="7ul09Yu6RcDukH9-tw2m-67" value="A" style="text;html=1;strokeColor=none;fillColor=none;align=center;verticalAlign=middle;whiteSpace=wrap;rounded=0;" vertex="1" parent="1">
          <mxGeometry x="380" y="830" width="40" height="20" as="geometry" />
        </mxCell>
        <mxCell id="7ul09Yu6RcDukH9-tw2m-68" value="B" style="text;html=1;strokeColor=none;fillColor=none;align=center;verticalAlign=middle;whiteSpace=wrap;rounded=0;" vertex="1" parent="1">
          <mxGeometry x="330" y="830" width="40" height="20" as="geometry" />
        </mxCell>
        <mxCell id="7ul09Yu6RcDukH9-tw2m-70" value="" style="pointerEvents=1;verticalLabelPosition=bottom;shadow=0;dashed=0;align=center;html=1;verticalAlign=top;shape=mxgraph.electrical.signal_sources.protective_earth;" vertex="1" parent="1">
          <mxGeometry x="430" y="570" width="20" height="20" as="geometry" />
        </mxCell>
        <mxCell id="7ul09Yu6RcDukH9-tw2m-72" style="edgeStyle=orthogonalEdgeStyle;rounded=0;orthogonalLoop=1;jettySize=auto;html=1;startArrow=classic;startFill=1;endArrow=none;endFill=0;strokeWidth=1;entryX=0.206;entryY=1.033;entryDx=0;entryDy=0;entryPerimeter=0;exitX=0;exitY=0.75;exitDx=0;exitDy=0;" edge="1" parent="1" source="7ul09Yu6RcDukH9-tw2m-31" target="7ul09Yu6RcDukH9-tw2m-3">
          <mxGeometry relative="1" as="geometry">
            <mxPoint x="700" y="380" as="sourcePoint" />
            <mxPoint x="405" y="610" as="targetPoint" />
            <Array as="points">
              <mxPoint x="490" y="450" />
              <mxPoint x="490" y="600" />
            </Array>
          </mxGeometry>
        </mxCell>
        <mxCell id="7ul09Yu6RcDukH9-tw2m-73" value="/ 1" style="edgeLabel;html=1;align=center;verticalAlign=middle;resizable=0;points=[];" vertex="1" connectable="0" parent="7ul09Yu6RcDukH9-tw2m-72">
          <mxGeometry x="-0.3054" y="1" relative="1" as="geometry">
            <mxPoint as="offset" />
          </mxGeometry>
        </mxCell>
        <mxCell id="7ul09Yu6RcDukH9-tw2m-74" value="/ 1" style="edgeStyle=orthogonalEdgeStyle;rounded=0;orthogonalLoop=1;jettySize=auto;html=1;exitX=0.25;exitY=0;exitDx=0;exitDy=0;strokeWidth=1;startArrow=classic;startFill=1;endArrow=none;endFill=0;" edge="1" parent="1">
          <mxGeometry relative="1" as="geometry">
            <mxPoint x="345" y="599" as="sourcePoint" />
            <mxPoint x="180" y="599.5" as="targetPoint" />
            <Array as="points">
              <mxPoint x="180" y="599.5" />
            </Array>
          </mxGeometry>
        </mxCell>
        <mxCell id="7ul09Yu6RcDukH9-tw2m-79" value="1J5 - Display BCD" style="rounded=0;whiteSpace=wrap;html=1;horizontal=0;" vertex="1" parent="1">
          <mxGeometry x="110" y="990" width="70" height="130" as="geometry" />
        </mxCell>
        <mxCell id="7ul09Yu6RcDukH9-tw2m-80" style="edgeStyle=orthogonalEdgeStyle;rounded=0;orthogonalLoop=1;jettySize=auto;html=1;exitX=0.5;exitY=1;exitDx=0;exitDy=0;entryX=0.75;entryY=1;entryDx=0;entryDy=0;startArrow=none;startFill=0;endArrow=classic;endFill=1;strokeWidth=3;" edge="1" parent="1" source="7ul09Yu6RcDukH9-tw2m-59" target="7ul09Yu6RcDukH9-tw2m-83">
          <mxGeometry relative="1" as="geometry">
            <mxPoint x="710" y="659.97" as="sourcePoint" />
            <mxPoint x="415" y="812.5" as="targetPoint" />
            <Array as="points">
              <mxPoint x="760" y="978" />
              <mxPoint x="460" y="978" />
            </Array>
          </mxGeometry>
        </mxCell>
        <mxCell id="7ul09Yu6RcDukH9-tw2m-81" value="/ 8" style="edgeLabel;html=1;align=center;verticalAlign=middle;resizable=0;points=[];" vertex="1" connectable="0" parent="7ul09Yu6RcDukH9-tw2m-80">
          <mxGeometry x="-0.3054" y="1" relative="1" as="geometry">
            <mxPoint as="offset" />
          </mxGeometry>
        </mxCell>
        <mxCell id="7ul09Yu6RcDukH9-tw2m-82" value="SPI&lt;br&gt;PORT" style="rounded=0;whiteSpace=wrap;html=1;" vertex="1" parent="1">
          <mxGeometry x="700" y="320" width="40" height="40" as="geometry" />
        </mxCell>
        <mxCell id="7ul09Yu6RcDukH9-tw2m-83" value="&lt;span style=&quot;color: rgb(29 , 28 , 29) ; font-family: , &amp;#34;applelogo&amp;#34; , sans-serif ; font-size: 15px ; text-align: left ; background-color: rgb(255 , 255 , 255)&quot;&gt;SN74LVC16T245&lt;/span&gt;" style="rounded=0;whiteSpace=wrap;html=1;rotation=-90;" vertex="1" parent="1">
          <mxGeometry x="290" y="990" width="170" height="60" as="geometry" />
        </mxCell>
        <mxCell id="7ul09Yu6RcDukH9-tw2m-84" style="edgeStyle=orthogonalEdgeStyle;rounded=0;orthogonalLoop=1;jettySize=auto;html=1;exitX=0.75;exitY=0;exitDx=0;exitDy=0;strokeWidth=3;" edge="1" parent="1">
          <mxGeometry relative="1" as="geometry">
            <mxPoint x="346" y="980" as="sourcePoint" />
            <mxPoint x="180" y="1060" as="targetPoint" />
            <Array as="points">
              <mxPoint x="240" y="980" />
              <mxPoint x="240" y="1060" />
              <mxPoint x="180" y="1060" />
            </Array>
          </mxGeometry>
        </mxCell>
        <mxCell id="7ul09Yu6RcDukH9-tw2m-85" value="/ 8" style="edgeLabel;html=1;align=center;verticalAlign=middle;resizable=0;points=[];" vertex="1" connectable="0" parent="7ul09Yu6RcDukH9-tw2m-84">
          <mxGeometry x="0.1859" y="1" relative="1" as="geometry">
            <mxPoint as="offset" />
          </mxGeometry>
        </mxCell>
        <mxCell id="7ul09Yu6RcDukH9-tw2m-86" value="DIR1" style="rounded=0;whiteSpace=wrap;html=1;" vertex="1" parent="1">
          <mxGeometry x="390" y="940" width="30" height="20" as="geometry" />
        </mxCell>
        <mxCell id="7ul09Yu6RcDukH9-tw2m-87" value="DIR2" style="rounded=0;whiteSpace=wrap;html=1;" vertex="1" parent="1">
          <mxGeometry x="390" y="1030" width="30" height="20" as="geometry" />
        </mxCell>
        <mxCell id="7ul09Yu6RcDukH9-tw2m-88" value="+3.3v" style="pointerEvents=1;verticalLabelPosition=top;shadow=0;dashed=0;align=center;html=1;verticalAlign=bottom;shape=mxgraph.electrical.signal_sources.signal_ground;rotation=-180;horizontal=0;labelPosition=center;textDirection=ltr;" vertex="1" parent="1">
          <mxGeometry x="430" y="919.97" width="15" height="20" as="geometry" />
        </mxCell>
        <mxCell id="7ul09Yu6RcDukH9-tw2m-89" value="" style="endArrow=none;html=1;strokeWidth=1;exitX=1;exitY=0.5;exitDx=0;exitDy=0;entryX=0.5;entryY=0;entryDx=0;entryDy=0;entryPerimeter=0;edgeStyle=orthogonalEdgeStyle;rounded=0;" edge="1" parent="1" target="7ul09Yu6RcDukH9-tw2m-88">
          <mxGeometry width="50" height="50" relative="1" as="geometry">
            <mxPoint x="420" y="949.97" as="sourcePoint" />
            <mxPoint x="480" y="789.97" as="targetPoint" />
          </mxGeometry>
        </mxCell>
        <mxCell id="7ul09Yu6RcDukH9-tw2m-90" value="A" style="text;html=1;strokeColor=none;fillColor=none;align=center;verticalAlign=middle;whiteSpace=wrap;rounded=0;" vertex="1" parent="1">
          <mxGeometry x="380" y="1090" width="40" height="20" as="geometry" />
        </mxCell>
        <mxCell id="7ul09Yu6RcDukH9-tw2m-91" value="B" style="text;html=1;strokeColor=none;fillColor=none;align=center;verticalAlign=middle;whiteSpace=wrap;rounded=0;" vertex="1" parent="1">
          <mxGeometry x="330" y="1090" width="40" height="20" as="geometry" />
        </mxCell>
        <mxCell id="7ul09Yu6RcDukH9-tw2m-97" value="5V Logic" style="text;html=1;strokeColor=none;fillColor=none;align=center;verticalAlign=middle;whiteSpace=wrap;rounded=0;fontSize=14;fontStyle=1" vertex="1" parent="1">
          <mxGeometry x="200" y="130" width="90" height="20" as="geometry" />
        </mxCell>
        <mxCell id="7ul09Yu6RcDukH9-tw2m-98" value="3V3 Logic" style="text;html=1;strokeColor=none;fillColor=none;align=center;verticalAlign=middle;whiteSpace=wrap;rounded=0;fontSize=14;fontStyle=1" vertex="1" parent="1">
          <mxGeometry x="660" y="130" width="90" height="20" as="geometry" />
        </mxCell>
        <mxCell id="7ul09Yu6RcDukH9-tw2m-99" value="VIN &lt;br&gt;7-16v" style="rounded=0;whiteSpace=wrap;html=1;fontSize=14;" vertex="1" parent="1">
          <mxGeometry x="890" y="270" width="60" height="40" as="geometry" />
        </mxCell>
        <mxCell id="7ul09Yu6RcDukH9-tw2m-100" value="IJ2 - Power" style="rounded=0;whiteSpace=wrap;html=1;fontSize=14;rotation=-90;" vertex="1" parent="1">
          <mxGeometry x="1050" y="330" width="160" height="60" as="geometry" />
        </mxCell>
        <mxCell id="7ul09Yu6RcDukH9-tw2m-101" value="12V" style="rounded=0;whiteSpace=wrap;html=1;fontSize=14;" vertex="1" parent="1">
          <mxGeometry x="1100" y="280" width="60" height="20" as="geometry" />
        </mxCell>
        <mxCell id="7ul09Yu6RcDukH9-tw2m-111" style="edgeStyle=orthogonalEdgeStyle;rounded=0;sketch=0;jumpStyle=arc;jumpSize=9;orthogonalLoop=1;jettySize=auto;html=1;exitX=0;exitY=0.5;exitDx=0;exitDy=0;entryX=0.5;entryY=0;entryDx=0;entryDy=0;entryPerimeter=0;startArrow=none;startFill=0;endArrow=none;endFill=0;strokeWidth=1;fontSize=14;" edge="1" parent="1" source="7ul09Yu6RcDukH9-tw2m-102" target="7ul09Yu6RcDukH9-tw2m-110">
          <mxGeometry relative="1" as="geometry" />
        </mxCell>
        <mxCell id="7ul09Yu6RcDukH9-tw2m-102" value="GND" style="rounded=0;whiteSpace=wrap;html=1;fontSize=14;" vertex="1" parent="1">
          <mxGeometry x="1100" y="425" width="60" height="20" as="geometry" />
        </mxCell>
        <mxCell id="7ul09Yu6RcDukH9-tw2m-103" value="5V" style="rounded=0;whiteSpace=wrap;html=1;fontSize=14;" vertex="1" parent="1">
          <mxGeometry x="1100" y="405" width="60" height="20" as="geometry" />
        </mxCell>
        <mxCell id="7ul09Yu6RcDukH9-tw2m-104" value="" style="endArrow=none;html=1;strokeWidth=3;fontSize=14;entryX=0;entryY=0.5;entryDx=0;entryDy=0;exitX=1;exitY=0.5;exitDx=0;exitDy=0;edgeStyle=orthogonalEdgeStyle;rounded=0;" edge="1" parent="1" source="7ul09Yu6RcDukH9-tw2m-99" target="7ul09Yu6RcDukH9-tw2m-101">
          <mxGeometry width="50" height="50" relative="1" as="geometry">
            <mxPoint x="1160" y="620" as="sourcePoint" />
            <mxPoint x="1210" y="570" as="targetPoint" />
          </mxGeometry>
        </mxCell>
        <mxCell id="7ul09Yu6RcDukH9-tw2m-107" style="edgeStyle=orthogonalEdgeStyle;rounded=0;sketch=0;jumpStyle=arc;jumpSize=9;orthogonalLoop=1;jettySize=auto;html=1;exitX=1;exitY=0.5;exitDx=0;exitDy=0;entryX=0.5;entryY=0;entryDx=0;entryDy=0;entryPerimeter=0;startArrow=none;startFill=0;endArrow=none;endFill=0;strokeWidth=1;fontSize=14;" edge="1" parent="1" source="7ul09Yu6RcDukH9-tw2m-105" target="7ul09Yu6RcDukH9-tw2m-106">
          <mxGeometry relative="1" as="geometry" />
        </mxCell>
        <mxCell id="7ul09Yu6RcDukH9-tw2m-105" value="3V3&lt;br&gt;Out" style="rounded=0;whiteSpace=wrap;html=1;fontSize=14;" vertex="1" parent="1">
          <mxGeometry x="890" y="330" width="60" height="40" as="geometry" />
        </mxCell>
        <mxCell id="7ul09Yu6RcDukH9-tw2m-106" value="+3.3v" style="pointerEvents=1;verticalLabelPosition=top;shadow=0;dashed=0;align=center;html=1;verticalAlign=bottom;shape=mxgraph.electrical.signal_sources.signal_ground;rotation=-180;horizontal=0;labelPosition=center;textDirection=ltr;" vertex="1" parent="1">
          <mxGeometry x="960" y="320" width="15" height="20" as="geometry" />
        </mxCell>
        <mxCell id="7ul09Yu6RcDukH9-tw2m-109" style="edgeStyle=orthogonalEdgeStyle;rounded=0;sketch=0;jumpStyle=arc;jumpSize=9;orthogonalLoop=1;jettySize=auto;html=1;exitX=0.5;exitY=0;exitDx=0;exitDy=0;exitPerimeter=0;entryX=0;entryY=0.5;entryDx=0;entryDy=0;startArrow=none;startFill=0;endArrow=none;endFill=0;strokeWidth=1;fontSize=14;" edge="1" parent="1" source="7ul09Yu6RcDukH9-tw2m-108" target="7ul09Yu6RcDukH9-tw2m-103">
          <mxGeometry relative="1" as="geometry">
            <Array as="points">
              <mxPoint x="1078" y="415" />
            </Array>
          </mxGeometry>
        </mxCell>
        <mxCell id="7ul09Yu6RcDukH9-tw2m-108" value="+5V" style="pointerEvents=1;verticalLabelPosition=top;shadow=0;dashed=0;align=center;html=1;verticalAlign=bottom;shape=mxgraph.electrical.signal_sources.signal_ground;rotation=-180;horizontal=0;labelPosition=center;textDirection=ltr;" vertex="1" parent="1">
          <mxGeometry x="1070" y="385" width="15" height="20" as="geometry" />
        </mxCell>
        <mxCell id="7ul09Yu6RcDukH9-tw2m-110" value="" style="pointerEvents=1;verticalLabelPosition=bottom;shadow=0;dashed=0;align=center;html=1;verticalAlign=top;shape=mxgraph.electrical.signal_sources.protective_earth;" vertex="1" parent="1">
          <mxGeometry x="1080" y="460" width="20" height="20" as="geometry" />
        </mxCell>
        <mxCell id="7ul09Yu6RcDukH9-tw2m-112" value="Port A: 8 output" style="rounded=0;whiteSpace=wrap;html=1;fontSize=14;align=right;" vertex="1" parent="1">
          <mxGeometry x="1300" y="60" width="120" height="30" as="geometry" />
        </mxCell>
        <mxCell id="7ul09Yu6RcDukH9-tw2m-113" value="Port B: 6 output&lt;br&gt;1 Input" style="rounded=0;whiteSpace=wrap;html=1;fontSize=14;align=right;" vertex="1" parent="1">
          <mxGeometry x="1300" y="90" width="120" height="30" as="geometry" />
        </mxCell>
        <mxCell id="7ul09Yu6RcDukH9-tw2m-114" value="Port C: 8 In/Out" style="rounded=0;whiteSpace=wrap;html=1;fontSize=14;align=right;" vertex="1" parent="1">
          <mxGeometry x="1300" y="120" width="120" height="30" as="geometry" />
        </mxCell>
        <mxCell id="7ul09Yu6RcDukH9-tw2m-115" value="Port D: 8 output" style="rounded=0;whiteSpace=wrap;html=1;fontSize=14;align=right;" vertex="1" parent="1">
          <mxGeometry x="1300" y="150" width="120" height="30" as="geometry" />
        </mxCell>
        <mxCell id="7ul09Yu6RcDukH9-tw2m-116" value="Port E: 8 output" style="rounded=0;whiteSpace=wrap;html=1;fontSize=14;align=right;" vertex="1" parent="1">
          <mxGeometry x="1300" y="180" width="120" height="30" as="geometry" />
        </mxCell>
        <mxCell id="7ul09Yu6RcDukH9-tw2m-117" value="Port F: 8 output" style="rounded=0;whiteSpace=wrap;html=1;fontSize=14;align=right;" vertex="1" parent="1">
          <mxGeometry x="1300" y="210" width="120" height="30" as="geometry" />
        </mxCell>
        <mxCell id="7ul09Yu6RcDukH9-tw2m-118" style="edgeStyle=orthogonalEdgeStyle;rounded=0;orthogonalLoop=1;jettySize=auto;html=1;startArrow=none;startFill=0;endArrow=classic;endFill=1;strokeWidth=3;exitX=0;exitY=0.5;exitDx=0;exitDy=0;" edge="1" parent="1" source="7ul09Yu6RcDukH9-tw2m-82">
          <mxGeometry relative="1" as="geometry">
            <mxPoint x="699.9999999999999" y="404.97999999999996" as="sourcePoint" />
            <mxPoint x="405.68" y="337.3" as="targetPoint" />
            <Array as="points">
              <mxPoint x="700" y="337" />
              <mxPoint x="554" y="337" />
            </Array>
          </mxGeometry>
        </mxCell>
        <mxCell id="7ul09Yu6RcDukH9-tw2m-119" value="/ 2" style="edgeLabel;html=1;align=center;verticalAlign=middle;resizable=0;points=[];" vertex="1" connectable="0" parent="7ul09Yu6RcDukH9-tw2m-118">
          <mxGeometry x="-0.3054" y="1" relative="1" as="geometry">
            <mxPoint as="offset" />
          </mxGeometry>
        </mxCell>
        <mxCell id="7ul09Yu6RcDukH9-tw2m-120" value="&lt;span style=&quot;color: rgb(29 , 28 , 29) ; font-family: , &amp;#34;applelogo&amp;#34; , sans-serif ; font-size: 15px ; text-align: left ; background-color: rgb(255 , 255 , 255)&quot;&gt;SPI Port&lt;/span&gt;" style="rounded=0;whiteSpace=wrap;html=1;rotation=-90;" vertex="1" parent="1">
          <mxGeometry x="105" y="155" width="80" height="60" as="geometry" />
        </mxCell>
        <mxCell id="7ul09Yu6RcDukH9-tw2m-121" style="edgeStyle=orthogonalEdgeStyle;rounded=0;orthogonalLoop=1;jettySize=auto;html=1;exitX=0.112;exitY=0.028;exitDx=0;exitDy=0;strokeWidth=3;exitPerimeter=0;entryX=0.5;entryY=1;entryDx=0;entryDy=0;jumpStyle=arc;" edge="1" parent="1" target="7ul09Yu6RcDukH9-tw2m-120">
          <mxGeometry relative="1" as="geometry">
            <mxPoint x="346.67999999999995" y="340.00000000000006" as="sourcePoint" />
            <mxPoint x="180" y="340.04" as="targetPoint" />
            <Array as="points">
              <mxPoint x="300" y="340" />
              <mxPoint x="300" y="185" />
            </Array>
          </mxGeometry>
        </mxCell>
        <mxCell id="7ul09Yu6RcDukH9-tw2m-122" value="/5" style="edgeLabel;html=1;align=center;verticalAlign=middle;resizable=0;points=[];" vertex="1" connectable="0" parent="7ul09Yu6RcDukH9-tw2m-121">
          <mxGeometry x="-0.1273" y="2" relative="1" as="geometry">
            <mxPoint as="offset" />
          </mxGeometry>
        </mxCell>
        <mxCell id="7ul09Yu6RcDukH9-tw2m-123" value="" style="endArrow=classic;html=1;strokeWidth=1;exitX=0.25;exitY=1;exitDx=0;exitDy=0;entryX=0.304;entryY=-0.006;entryDx=0;entryDy=0;edgeStyle=orthogonalEdgeStyle;rounded=0;jumpStyle=arc;jumpSize=9;entryPerimeter=0;" edge="1" parent="1" source="7ul09Yu6RcDukH9-tw2m-120" target="7ul09Yu6RcDukH9-tw2m-3">
          <mxGeometry width="50" height="50" relative="1" as="geometry">
            <mxPoint x="430" y="30" as="sourcePoint" />
            <mxPoint x="160" y="60" as="targetPoint" />
            <Array as="points">
              <mxPoint x="230" y="205" />
              <mxPoint x="230" y="583" />
            </Array>
          </mxGeometry>
        </mxCell>
        <mxCell id="7ul09Yu6RcDukH9-tw2m-124" value="/ 1" style="edgeLabel;html=1;align=center;verticalAlign=middle;resizable=0;points=[];" vertex="1" connectable="0" parent="7ul09Yu6RcDukH9-tw2m-123">
          <mxGeometry x="-0.2647" relative="1" as="geometry">
            <mxPoint as="offset" />
          </mxGeometry>
        </mxCell>
        <mxCell id="7ul09Yu6RcDukH9-tw2m-125" value="MISO" style="text;html=1;strokeColor=none;fillColor=none;align=center;verticalAlign=middle;whiteSpace=wrap;rounded=0;fontSize=14;" vertex="1" parent="1">
          <mxGeometry x="250" y="560" width="40" height="20" as="geometry" />
        </mxCell>
        <mxCell id="7ul09Yu6RcDukH9-tw2m-127" value="MOSI / SCLK&lt;br&gt;+ 3 SS" style="text;html=1;strokeColor=none;fillColor=none;align=center;verticalAlign=middle;whiteSpace=wrap;rounded=0;fontSize=14;" vertex="1" parent="1">
          <mxGeometry x="200" y="175" width="110" height="20" as="geometry" />
        </mxCell>
        <mxCell id="7ul09Yu6RcDukH9-tw2m-128" value="MOSI / SCLK" style="text;html=1;strokeColor=none;fillColor=none;align=center;verticalAlign=middle;whiteSpace=wrap;rounded=0;fontSize=14;" vertex="1" parent="1">
          <mxGeometry x="490" y="320" width="110" height="20" as="geometry" />
        </mxCell>
        <mxCell id="7ul09Yu6RcDukH9-tw2m-132" value="ADDR" style="text;html=1;strokeColor=none;fillColor=none;align=center;verticalAlign=middle;whiteSpace=wrap;rounded=0;fontSize=14;" vertex="1" parent="1">
          <mxGeometry x="450" y="240" width="110" height="20" as="geometry" />
        </mxCell>
        <mxCell id="7ul09Yu6RcDukH9-tw2m-133" value="UTIL + 3 SS" style="text;html=1;strokeColor=none;fillColor=none;align=center;verticalAlign=middle;whiteSpace=wrap;rounded=0;fontSize=14;" vertex="1" parent="1">
          <mxGeometry x="540" y="405" width="110" height="20" as="geometry" />
        </mxCell>
        <mxCell id="7ul09Yu6RcDukH9-tw2m-135" value="UTIL" style="text;html=1;strokeColor=none;fillColor=none;align=center;verticalAlign=middle;whiteSpace=wrap;rounded=0;fontSize=14;" vertex="1" parent="1">
          <mxGeometry x="250" y="348" width="110" height="20" as="geometry" />
        </mxCell>
        <mxCell id="7ul09Yu6RcDukH9-tw2m-136" value="ADDR" style="text;html=1;strokeColor=none;fillColor=none;align=center;verticalAlign=middle;whiteSpace=wrap;rounded=0;fontSize=14;" vertex="1" parent="1">
          <mxGeometry x="210" y="240" width="110" height="20" as="geometry" />
        </mxCell>
        <mxCell id="7ul09Yu6RcDukH9-tw2m-137" value="DATA" style="text;html=1;strokeColor=none;fillColor=none;align=center;verticalAlign=middle;whiteSpace=wrap;rounded=0;fontSize=14;" vertex="1" parent="1">
          <mxGeometry x="210" y="490" width="110" height="20" as="geometry" />
        </mxCell>
        <mxCell id="7ul09Yu6RcDukH9-tw2m-138" value="" style="endArrow=classic;html=1;strokeWidth=1;entryX=0;entryY=0.75;entryDx=0;entryDy=0;edgeStyle=orthogonalEdgeStyle;rounded=0;jumpStyle=arc;jumpSize=9;exitX=0.109;exitY=0.998;exitDx=0;exitDy=0;exitPerimeter=0;" edge="1" parent="1" source="7ul09Yu6RcDukH9-tw2m-3" target="7ul09Yu6RcDukH9-tw2m-82">
          <mxGeometry width="50" height="50" relative="1" as="geometry">
            <mxPoint x="560" y="230" as="sourcePoint" />
            <mxPoint x="729.64" y="608.3199999999999" as="targetPoint" />
            <Array as="points">
              <mxPoint x="660" y="616" />
              <mxPoint x="660" y="350" />
            </Array>
          </mxGeometry>
        </mxCell>
        <mxCell id="7ul09Yu6RcDukH9-tw2m-139" value="/ 1" style="edgeLabel;html=1;align=center;verticalAlign=middle;resizable=0;points=[];" vertex="1" connectable="0" parent="7ul09Yu6RcDukH9-tw2m-138">
          <mxGeometry x="-0.2647" relative="1" as="geometry">
            <mxPoint as="offset" />
          </mxGeometry>
        </mxCell>
        <mxCell id="7ul09Yu6RcDukH9-tw2m-140" value="MISO" style="text;html=1;strokeColor=none;fillColor=none;align=center;verticalAlign=middle;whiteSpace=wrap;rounded=0;fontSize=14;" vertex="1" parent="1">
          <mxGeometry x="500" y="600" width="40" height="20" as="geometry" />
        </mxCell>
        <mxCell id="7ul09Yu6RcDukH9-tw2m-141" value="IRQ" style="text;html=1;strokeColor=none;fillColor=none;align=center;verticalAlign=middle;whiteSpace=wrap;rounded=0;fontSize=14;" vertex="1" parent="1">
          <mxGeometry x="190" y="580" width="40" height="20" as="geometry" />
        </mxCell>
        <mxCell id="7ul09Yu6RcDukH9-tw2m-142" value="IRQ" style="text;html=1;strokeColor=none;fillColor=none;align=center;verticalAlign=middle;whiteSpace=wrap;rounded=0;fontSize=14;" vertex="1" parent="1">
          <mxGeometry x="485" y="450" width="40" height="20" as="geometry" />
        </mxCell>
        <mxCell id="7ul09Yu6RcDukH9-tw2m-143" value="DATA DIR" style="text;html=1;strokeColor=none;fillColor=none;align=center;verticalAlign=middle;whiteSpace=wrap;rounded=0;fontSize=14;" vertex="1" parent="1">
          <mxGeometry x="455" y="420" width="65" height="20" as="geometry" />
        </mxCell>
        <mxCell id="7ul09Yu6RcDukH9-tw2m-144" value="DISP STROBE A" style="text;html=1;strokeColor=none;fillColor=none;align=center;verticalAlign=middle;whiteSpace=wrap;rounded=0;fontSize=14;" vertex="1" parent="1">
          <mxGeometry x="430" y="700" width="120" height="20" as="geometry" />
        </mxCell>
        <mxCell id="7ul09Yu6RcDukH9-tw2m-145" value="DISP STROBE B" style="text;html=1;strokeColor=none;fillColor=none;align=center;verticalAlign=middle;whiteSpace=wrap;rounded=0;fontSize=14;" vertex="1" parent="1">
          <mxGeometry x="470" y="780" width="120" height="20" as="geometry" />
        </mxCell>
        <mxCell id="7ul09Yu6RcDukH9-tw2m-146" value="DISP BCD" style="text;html=1;strokeColor=none;fillColor=none;align=center;verticalAlign=middle;whiteSpace=wrap;rounded=0;fontSize=14;" vertex="1" parent="1">
          <mxGeometry x="485" y="960" width="120" height="20" as="geometry" />
        </mxCell>
        <mxCell id="7ul09Yu6RcDukH9-tw2m-147" value="&lt;div style=&quot;&quot;&gt;&lt;span style=&quot;font-size: 7px&quot;&gt;Need line conditioning:&lt;/span&gt;&lt;/div&gt;&lt;div style=&quot;&quot;&gt;&lt;span style=&quot;font-size: 7px&quot;&gt;&amp;nbsp;&lt;/span&gt;&lt;span style=&quot;font-size: 7px&quot;&gt;470PF to GND&lt;/span&gt;&lt;/div&gt;&lt;font style=&quot;font-size: 7px&quot;&gt;&lt;div style=&quot;&quot;&gt;1k R inline&amp;nbsp;&lt;/div&gt;&lt;div style=&quot;&quot;&gt;4.7k pullup&lt;/div&gt;&lt;/font&gt;" style="shape=callout;whiteSpace=wrap;html=1;perimeter=calloutPerimeter;fontSize=14;align=center;" vertex="1" parent="1">
          <mxGeometry x="230" y="630" width="85" height="90" as="geometry" />
        </mxCell>
        <mxCell id="7ul09Yu6RcDukH9-tw2m-149" value="&lt;div style=&quot;&quot;&gt;&lt;span style=&quot;font-size: 7px&quot;&gt;Need line conditioning:&lt;/span&gt;&lt;/div&gt;&lt;div style=&quot;&quot;&gt;&lt;span style=&quot;font-size: 7px&quot;&gt;&amp;nbsp;&lt;/span&gt;&lt;span style=&quot;font-size: 7px&quot;&gt;470PF to GND&lt;/span&gt;&lt;/div&gt;&lt;font style=&quot;font-size: 7px&quot;&gt;&lt;div style=&quot;&quot;&gt;1k R inline&amp;nbsp;&lt;/div&gt;&lt;div style=&quot;&quot;&gt;4.7k pullup&lt;/div&gt;&lt;/font&gt;" style="shape=callout;whiteSpace=wrap;html=1;perimeter=calloutPerimeter;fontSize=14;align=center;position2=0;size=20;position=0.12;" vertex="1" parent="1">
          <mxGeometry x="250" y="740" width="85" height="90" as="geometry" />
        </mxCell>
        <mxCell id="7ul09Yu6RcDukH9-tw2m-150" value="&lt;div style=&quot;&quot;&gt;&lt;span style=&quot;font-size: 7px&quot;&gt;Need line conditioning:&lt;/span&gt;&lt;/div&gt;&lt;div style=&quot;&quot;&gt;&lt;span style=&quot;font-size: 7px&quot;&gt;&amp;nbsp;&lt;/span&gt;&lt;span style=&quot;font-size: 7px&quot;&gt;470PF to GND&lt;/span&gt;&lt;/div&gt;&lt;font style=&quot;font-size: 7px&quot;&gt;&lt;div style=&quot;&quot;&gt;1k R inline&amp;nbsp;&lt;/div&gt;&lt;div style=&quot;&quot;&gt;4.7k pullup&lt;/div&gt;&lt;/font&gt;" style="shape=callout;whiteSpace=wrap;html=1;perimeter=calloutPerimeter;fontSize=14;align=center;position2=0;size=20;position=0.12;" vertex="1" parent="1">
          <mxGeometry x="250" y="890" width="85" height="90" as="geometry" />
        </mxCell>
        <mxCell id="7ul09Yu6RcDukH9-tw2m-151" value="SPI Port: 2 output&lt;br&gt;1 input" style="rounded=0;whiteSpace=wrap;html=1;fontSize=14;align=right;" vertex="1" parent="1">
          <mxGeometry x="1300" y="240" width="120" height="30" as="geometry" />
        </mxCell>
        <mxCell id="7ul09Yu6RcDukH9-tw2m-153" value="Notes" style="text;html=1;strokeColor=none;fillColor=none;align=center;verticalAlign=middle;whiteSpace=wrap;rounded=0;fontSize=14;" vertex="1" parent="1">
          <mxGeometry x="1295" y="30" width="40" height="20" as="geometry" />
        </mxCell>
        <mxCell id="7ul09Yu6RcDukH9-tw2m-154" value="Port Overview" style="text;html=1;strokeColor=none;fillColor=none;align=center;verticalAlign=middle;whiteSpace=wrap;rounded=0;fontSize=14;rotation=-90;" vertex="1" parent="1">
          <mxGeometry x="1200" y="150" width="90" height="20" as="geometry" />
        </mxCell>
        <mxCell id="7ul09Yu6RcDukH9-tw2m-155" value="&lt;h1 style=&quot;text-align: left&quot;&gt;General&lt;/h1&gt;&lt;p&gt;&lt;div style=&quot;text-align: left&quot;&gt;Ports Labeled 1Jx are native pinball headers - .396 inch spacing friction lock &amp;nbsp;Molex KK connectors.&lt;/div&gt;&lt;div style=&quot;text-align: left&quot;&gt;&lt;br&gt;&lt;/div&gt;&lt;div style=&quot;text-align: left&quot;&gt;The SPI header can be a 2x3 inline dupont pin header.&lt;/div&gt;&lt;div style=&quot;text-align: left&quot;&gt;&lt;br&gt;&lt;/div&gt;&lt;div style=&quot;text-align: left&quot;&gt;The display strobes and BCD output are expected to go to long cable runs and need conditioning. &amp;nbsp;(470 pf and 1kohm inline resistors). Additionally they need 4.7k ohm pull up resistors.&lt;/div&gt;&lt;div style=&quot;text-align: left&quot;&gt;&lt;br&gt;&lt;/div&gt;&lt;div style=&quot;text-align: left&quot;&gt;The 1J1 - 40 pin header has 4.7k pull-ups on its mating board. &amp;nbsp;Additional lines from that connector need to be pulled high or low depending on the chart below.&lt;/div&gt;&lt;/p&gt;" style="text;html=1;strokeColor=none;fillColor=none;spacing=5;spacingTop=-20;whiteSpace=wrap;overflow=hidden;rounded=0;fontSize=14;align=center;" vertex="1" parent="1">
          <mxGeometry x="1200" y="330" width="190" height="440" as="geometry" />
        </mxCell>
        <mxCell id="7ul09Yu6RcDukH9-tw2m-156" value="&lt;table cellspacing=&quot;0&quot; cellpadding=&quot;0&quot; style=&quot;color: rgb(0, 0, 0); font-style: normal; font-weight: normal; letter-spacing: normal; text-indent: 0px; text-transform: none; word-spacing: 0px; text-decoration: none; border-collapse: collapse;&quot;&gt;&lt;tbody&gt;&lt;tr&gt;&lt;td valign=&quot;top&quot; style=&quot;width: 78px ; height: 14px ; background-color: rgb(190 , 192 , 191) ; border: 1px solid rgb(0 , 0 , 0) ; padding: 4px&quot;&gt;&lt;p style=&quot;margin: 0px&quot;&gt;&lt;font face=&quot;Helvetica Neue&quot; size=&quot;2&quot; color=&quot;#000000&quot; style=&quot;font-style: normal ; font-weight: normal ; font-stretch: normal ; font-size: 10px ; line-height: normal ; font-family: &amp;quot;helvetica neue&amp;quot; ; color: rgb(0 , 0 , 0)&quot;&gt;&lt;b&gt;Signal Name&lt;/b&gt;&lt;/font&gt;&lt;/p&gt;&lt;/td&gt;&lt;td valign=&quot;top&quot; style=&quot;width: 153px ; height: 14px ; background-color: rgb(190 , 192 , 191) ; border: 1px solid rgb(0 , 0 , 0) ; padding: 4px&quot;&gt;&lt;p style=&quot;margin: 0px&quot;&gt;&lt;font face=&quot;Helvetica Neue&quot; size=&quot;2&quot; color=&quot;#000000&quot; style=&quot;font-style: normal ; font-weight: normal ; font-stretch: normal ; font-size: 10px ; line-height: normal ; font-family: &amp;quot;helvetica neue&amp;quot; ; color: rgb(0 , 0 , 0)&quot;&gt;&lt;b&gt;Used By&lt;/b&gt;&lt;/font&gt;&lt;/p&gt;&lt;/td&gt;&lt;td valign=&quot;top&quot; style=&quot;width: 210px ; height: 14px ; background-color: rgb(190 , 192 , 191) ; border: 1px solid rgb(0 , 0 , 0) ; padding: 4px&quot;&gt;&lt;p style=&quot;margin: 0px&quot;&gt;&lt;font face=&quot;Helvetica Neue&quot; size=&quot;2&quot; color=&quot;#000000&quot; style=&quot;font-style: normal ; font-weight: normal ; font-stretch: normal ; font-size: 10px ; line-height: normal ; font-family: &amp;quot;helvetica neue&amp;quot; ; color: rgb(0 , 0 , 0)&quot;&gt;&lt;b&gt;Notes&lt;/b&gt;&lt;/font&gt;&lt;/p&gt;&lt;/td&gt;&lt;/tr&gt;&lt;tr&gt;&lt;td valign=&quot;top&quot; style=&quot;width: 78px ; height: 14px ; border: 1px solid rgb(0 , 0 , 0) ; padding: 4px&quot;&gt;&lt;p style=&quot;margin: 0px&quot;&gt;&lt;font face=&quot;Helvetica Neue&quot; size=&quot;2&quot; color=&quot;#000000&quot; style=&quot;font-style: normal ; font-weight: normal ; font-stretch: normal ; font-size: 10px ; line-height: normal ; font-family: &amp;quot;helvetica neue&amp;quot; ; color: rgb(0 , 0 , 0)&quot;&gt;A0&lt;/font&gt;&lt;/p&gt;&lt;/td&gt;&lt;td valign=&quot;top&quot; style=&quot;width: 153px ; height: 14px ; border: 1px solid rgb(0 , 0 , 0) ; padding: 4px&quot;&gt;&lt;p style=&quot;margin: 0px&quot;&gt;&lt;font face=&quot;Helvetica Neue&quot; size=&quot;2&quot; color=&quot;#000000&quot; style=&quot;font-style: normal ; font-weight: normal ; font-stretch: normal ; font-size: 10px ; line-height: normal ; font-family: &amp;quot;helvetica neue&amp;quot; ; color: rgb(0 , 0 , 0)&quot;&gt;All PIA Register Select&lt;/font&gt;&lt;/p&gt;&lt;/td&gt;&lt;td valign=&quot;top&quot; style=&quot;width: 210px ; height: 14px ; border: 1px solid rgb(0 , 0 , 0) ; padding: 4px&quot;&gt;&lt;p style=&quot;margin: 0px&quot;&gt;&lt;font face=&quot;Helvetica Neue&quot; size=&quot;2&quot; color=&quot;#000000&quot; style=&quot;font-style: normal ; font-weight: normal ; font-stretch: normal ; font-size: 10px ; line-height: normal ; font-family: &amp;quot;helvetica neue&amp;quot; ; color: rgb(0 , 0 , 0)&quot;&gt;Output from MPU&lt;/font&gt;&lt;/p&gt;&lt;/td&gt;&lt;/tr&gt;&lt;tr&gt;&lt;td valign=&quot;top&quot; style=&quot;width: 78px ; height: 13px ; background-color: rgb(239 , 239 , 239) ; border: 1px solid rgb(0 , 0 , 0) ; padding: 4px&quot;&gt;&lt;p style=&quot;margin: 0px&quot;&gt;&lt;font face=&quot;Helvetica Neue&quot; size=&quot;2&quot; color=&quot;#000000&quot; style=&quot;font-style: normal ; font-weight: normal ; font-stretch: normal ; font-size: 10px ; line-height: normal ; font-family: &amp;quot;helvetica neue&amp;quot; ; color: rgb(0 , 0 , 0)&quot;&gt;A1&lt;/font&gt;&lt;/p&gt;&lt;/td&gt;&lt;td valign=&quot;top&quot; style=&quot;width: 153px ; height: 13px ; background-color: rgb(239 , 239 , 239) ; border: 1px solid rgb(0 , 0 , 0) ; padding: 4px&quot;&gt;&lt;p style=&quot;margin: 0px&quot;&gt;&lt;font face=&quot;Helvetica Neue&quot; size=&quot;2&quot; color=&quot;#000000&quot; style=&quot;font-style: normal ; font-weight: normal ; font-stretch: normal ; font-size: 10px ; line-height: normal ; font-family: &amp;quot;helvetica neue&amp;quot; ; color: rgb(0 , 0 , 0)&quot;&gt;All PIA Register Select&lt;/font&gt;&lt;/p&gt;&lt;/td&gt;&lt;td valign=&quot;top&quot; style=&quot;width: 210px ; height: 13px ; background-color: rgb(239 , 239 , 239) ; border: 1px solid rgb(0 , 0 , 0) ; padding: 4px&quot;&gt;&lt;p style=&quot;margin: 0px&quot;&gt;&lt;font face=&quot;Helvetica Neue&quot; size=&quot;2&quot; color=&quot;#000000&quot; style=&quot;font-style: normal ; font-weight: normal ; font-stretch: normal ; font-size: 10px ; line-height: normal ; font-family: &amp;quot;helvetica neue&amp;quot; ; color: rgb(0 , 0 , 0)&quot;&gt;Output from MPU&lt;/font&gt;&lt;/p&gt;&lt;/td&gt;&lt;/tr&gt;&lt;tr&gt;&lt;td valign=&quot;top&quot; style=&quot;width: 78px ; height: 14px ; border: 1px solid rgb(0 , 0 , 0) ; padding: 4px&quot;&gt;&lt;p style=&quot;margin: 0px&quot;&gt;&lt;font face=&quot;Helvetica Neue&quot; size=&quot;2&quot; color=&quot;#000000&quot; style=&quot;font-style: normal ; font-weight: normal ; font-stretch: normal ; font-size: 10px ; line-height: normal ; font-family: &amp;quot;helvetica neue&amp;quot; ; color: rgb(0 , 0 , 0)&quot;&gt;A9&lt;/font&gt;&lt;/p&gt;&lt;/td&gt;&lt;td valign=&quot;top&quot; style=&quot;width: 153px ; height: 14px ; border: 1px solid rgb(0 , 0 , 0) ; padding: 4px&quot;&gt;&lt;p style=&quot;margin: 0px&quot;&gt;&lt;font face=&quot;Helvetica Neue&quot; size=&quot;2&quot; color=&quot;#000000&quot; style=&quot;font-style: normal ; font-weight: normal ; font-stretch: normal ; font-size: 10px ; line-height: normal ; font-family: &amp;quot;helvetica neue&amp;quot; ; color: rgb(0 , 0 , 0)&quot;&gt;PIA4 CS1&lt;/font&gt;&lt;/p&gt;&lt;/td&gt;&lt;td valign=&quot;top&quot; style=&quot;width: 210px ; height: 14px ; border: 1px solid rgb(0 , 0 , 0) ; padding: 4px&quot;&gt;&lt;p style=&quot;margin: 0px&quot;&gt;&lt;font face=&quot;Helvetica Neue&quot; size=&quot;2&quot; color=&quot;#000000&quot; style=&quot;font-style: normal ; font-weight: normal ; font-stretch: normal ; font-size: 10px ; line-height: normal ; font-family: &amp;quot;helvetica neue&amp;quot; ; color: rgb(0 , 0 , 0)&quot;&gt;Output from MPU&lt;/font&gt;&lt;/p&gt;&lt;/td&gt;&lt;/tr&gt;&lt;tr&gt;&lt;td valign=&quot;top&quot; style=&quot;width: 78px ; height: 14px ; background-color: rgb(239 , 239 , 239) ; border: 1px solid rgb(0 , 0 , 0) ; padding: 4px&quot;&gt;&lt;p style=&quot;margin: 0px&quot;&gt;&lt;font face=&quot;Helvetica Neue&quot; size=&quot;2&quot; color=&quot;#000000&quot; style=&quot;font-style: normal ; font-weight: normal ; font-stretch: normal ; font-size: 10px ; line-height: normal ; font-family: &amp;quot;helvetica neue&amp;quot; ; color: rgb(0 , 0 , 0)&quot;&gt;A10&lt;/font&gt;&lt;/p&gt;&lt;/td&gt;&lt;td valign=&quot;top&quot; style=&quot;width: 153px ; height: 14px ; background-color: rgb(239 , 239 , 239) ; border: 1px solid rgb(0 , 0 , 0) ; padding: 4px&quot;&gt;&lt;p style=&quot;margin: 0px&quot;&gt;&lt;font face=&quot;Helvetica Neue&quot; size=&quot;2&quot; color=&quot;#000000&quot; style=&quot;font-style: normal ; font-weight: normal ; font-stretch: normal ; font-size: 10px ; line-height: normal ; font-family: &amp;quot;helvetica neue&amp;quot; ; color: rgb(0 , 0 , 0)&quot;&gt;PIA3 CS1&lt;/font&gt;&lt;/p&gt;&lt;/td&gt;&lt;td valign=&quot;top&quot; style=&quot;width: 210px ; height: 14px ; background-color: rgb(239 , 239 , 239) ; border: 1px solid rgb(0 , 0 , 0) ; padding: 4px&quot;&gt;&lt;p style=&quot;margin: 0px&quot;&gt;&lt;font face=&quot;Helvetica Neue&quot; size=&quot;2&quot; color=&quot;#000000&quot; style=&quot;font-style: normal ; font-weight: normal ; font-stretch: normal ; font-size: 10px ; line-height: normal ; font-family: &amp;quot;helvetica neue&amp;quot; ; color: rgb(0 , 0 , 0)&quot;&gt;Output from MPU&lt;/font&gt;&lt;/p&gt;&lt;/td&gt;&lt;/tr&gt;&lt;tr&gt;&lt;td valign=&quot;top&quot; style=&quot;width: 78px ; height: 14px ; border: 1px solid rgb(0 , 0 , 0) ; padding: 4px&quot;&gt;&lt;p style=&quot;margin: 0px&quot;&gt;&lt;font face=&quot;Helvetica Neue&quot; size=&quot;2&quot; color=&quot;#000000&quot; style=&quot;font-style: normal ; font-weight: normal ; font-stretch: normal ; font-size: 10px ; line-height: normal ; font-family: &amp;quot;helvetica neue&amp;quot; ; color: rgb(0 , 0 , 0)&quot;&gt;A12&lt;/font&gt;&lt;/p&gt;&lt;/td&gt;&lt;td valign=&quot;top&quot; style=&quot;width: 153px ; height: 14px ; border: 1px solid rgb(0 , 0 , 0) ; padding: 4px&quot;&gt;&lt;p style=&quot;margin: 0px&quot;&gt;&lt;font face=&quot;Helvetica Neue&quot; size=&quot;2&quot; color=&quot;#000000&quot; style=&quot;font-style: normal ; font-weight: normal ; font-stretch: normal ; font-size: 10px ; line-height: normal ; font-family: &amp;quot;helvetica neue&amp;quot; ; color: rgb(0 , 0 , 0)&quot;&gt;PIA2 CS1&lt;/font&gt;&lt;/p&gt;&lt;/td&gt;&lt;td valign=&quot;top&quot; style=&quot;width: 210px ; height: 14px ; border: 1px solid rgb(0 , 0 , 0) ; padding: 4px&quot;&gt;&lt;p style=&quot;margin: 0px&quot;&gt;&lt;font face=&quot;Helvetica Neue&quot; size=&quot;2&quot; color=&quot;#000000&quot; style=&quot;font-style: normal ; font-weight: normal ; font-stretch: normal ; font-size: 10px ; line-height: normal ; font-family: &amp;quot;helvetica neue&amp;quot; ; color: rgb(0 , 0 , 0)&quot;&gt;Output from MPU&lt;/font&gt;&lt;/p&gt;&lt;/td&gt;&lt;/tr&gt;&lt;tr&gt;&lt;td valign=&quot;top&quot; style=&quot;width: 78px ; height: 13px ; background-color: rgb(239 , 239 , 239) ; border: 1px solid rgb(0 , 0 , 0) ; padding: 4px&quot;&gt;&lt;p style=&quot;margin: 0px&quot;&gt;&lt;font face=&quot;Helvetica Neue&quot; size=&quot;2&quot; color=&quot;#000000&quot; style=&quot;font-style: normal ; font-weight: normal ; font-stretch: normal ; font-size: 10px ; line-height: normal ; font-family: &amp;quot;helvetica neue&amp;quot; ; color: rgb(0 , 0 , 0)&quot;&gt;A13&lt;/font&gt;&lt;/p&gt;&lt;/td&gt;&lt;td valign=&quot;top&quot; style=&quot;width: 153px ; height: 13px ; background-color: rgb(239 , 239 , 239) ; border: 1px solid rgb(0 , 0 , 0) ; padding: 4px&quot;&gt;&lt;p style=&quot;margin: 0px&quot;&gt;&lt;font face=&quot;Helvetica Neue&quot; size=&quot;2&quot; color=&quot;#000000&quot; style=&quot;font-style: normal ; font-weight: normal ; font-stretch: normal ; font-size: 10px ; line-height: normal ; font-family: &amp;quot;helvetica neue&amp;quot; ; color: rgb(0 , 0 , 0)&quot;&gt;All PIA CS0 (&amp;amp; w/ VMA)&lt;/font&gt;&lt;/p&gt;&lt;/td&gt;&lt;td valign=&quot;top&quot; style=&quot;width: 210px ; height: 13px ; background-color: rgb(239 , 239 , 239) ; border: 1px solid rgb(0 , 0 , 0) ; padding: 4px&quot;&gt;&lt;p style=&quot;margin: 0px&quot;&gt;&lt;font face=&quot;Helvetica Neue&quot; size=&quot;2&quot; color=&quot;#000000&quot; style=&quot;font-style: normal ; font-weight: normal ; font-stretch: normal ; font-size: 10px ; line-height: normal ; font-family: &amp;quot;helvetica neue&amp;quot; ; color: rgb(0 , 0 , 0)&quot;&gt;Tie to +5v?&lt;/font&gt;&lt;/p&gt;&lt;/td&gt;&lt;/tr&gt;&lt;tr&gt;&lt;td valign=&quot;top&quot; style=&quot;width: 78px ; height: 14px ; border: 1px solid rgb(0 , 0 , 0) ; padding: 4px&quot;&gt;&lt;p style=&quot;margin: 0px&quot;&gt;&lt;font face=&quot;Helvetica Neue&quot; size=&quot;2&quot; color=&quot;#000000&quot; style=&quot;font-style: normal ; font-weight: normal ; font-stretch: normal ; font-size: 10px ; line-height: normal ; font-family: &amp;quot;helvetica neue&amp;quot; ; color: rgb(0 , 0 , 0)&quot;&gt;A14&lt;/font&gt;&lt;/p&gt;&lt;/td&gt;&lt;td valign=&quot;top&quot; style=&quot;width: 153px ; height: 14px ; border: 1px solid rgb(0 , 0 , 0) ; padding: 4px&quot;&gt;&lt;p style=&quot;margin: 0px&quot;&gt;&lt;font face=&quot;Helvetica Neue&quot; size=&quot;2&quot; color=&quot;#000000&quot; style=&quot;font-style: normal ; font-weight: normal ; font-stretch: normal ; font-size: 10px ; line-height: normal ; font-family: &amp;quot;helvetica neue&amp;quot; ; color: rgb(0 , 0 , 0)&quot;&gt;All PIA CS2’&lt;/font&gt;&lt;/p&gt;&lt;/td&gt;&lt;td valign=&quot;top&quot; style=&quot;width: 210px ; height: 14px ; border: 1px solid rgb(0 , 0 , 0) ; padding: 4px&quot;&gt;&lt;p style=&quot;margin: 0px&quot;&gt;&lt;font face=&quot;Helvetica Neue&quot; size=&quot;2&quot; color=&quot;#000000&quot; style=&quot;font-style: normal ; font-weight: normal ; font-stretch: normal ; font-size: 10px ; line-height: normal ; font-family: &amp;quot;helvetica neue&amp;quot; ; color: rgb(0 , 0 , 0)&quot;&gt;Tie to GND?&lt;/font&gt;&lt;/p&gt;&lt;/td&gt;&lt;/tr&gt;&lt;tr&gt;&lt;td valign=&quot;top&quot; style=&quot;width: 78px ; height: 14px ; background-color: rgb(239 , 239 , 239) ; border: 1px solid rgb(0 , 0 , 0) ; padding: 4px&quot;&gt;&lt;p style=&quot;margin: 0px&quot;&gt;&lt;font face=&quot;Helvetica Neue&quot; size=&quot;2&quot; color=&quot;#000000&quot; style=&quot;font-style: normal ; font-weight: normal ; font-stretch: normal ; font-size: 10px ; line-height: normal ; font-family: &amp;quot;helvetica neue&amp;quot; ; color: rgb(0 , 0 , 0)&quot;&gt;VMA&lt;/font&gt;&lt;/p&gt;&lt;/td&gt;&lt;td valign=&quot;top&quot; style=&quot;width: 153px ; height: 14px ; background-color: rgb(239 , 239 , 239) ; border: 1px solid rgb(0 , 0 , 0) ; padding: 4px&quot;&gt;&lt;p style=&quot;margin: 0px&quot;&gt;&lt;font face=&quot;Helvetica Neue&quot; size=&quot;2&quot; color=&quot;#000000&quot; style=&quot;font-style: normal ; font-weight: normal ; font-stretch: normal ; font-size: 10px ; line-height: normal ; font-family: &amp;quot;helvetica neue&amp;quot; ; color: rgb(0 , 0 , 0)&quot;&gt;All PIA CS0 (&amp;amp;w/A13)&lt;/font&gt;&lt;/p&gt;&lt;/td&gt;&lt;td valign=&quot;top&quot; style=&quot;width: 210px ; height: 14px ; background-color: rgb(239 , 239 , 239) ; border: 1px solid rgb(0 , 0 , 0) ; padding: 4px&quot;&gt;&lt;p style=&quot;margin: 0px&quot;&gt;&lt;font face=&quot;Helvetica Neue&quot; size=&quot;2&quot; color=&quot;#000000&quot; style=&quot;font-style: normal ; font-weight: normal ; font-stretch: normal ; font-size: 10px ; line-height: normal ; font-family: &amp;quot;helvetica neue&amp;quot; ; color: rgb(0 , 0 , 0)&quot;&gt;Tie to +5v?&lt;/font&gt;&lt;/p&gt;&lt;/td&gt;&lt;/tr&gt;&lt;tr&gt;&lt;td valign=&quot;top&quot; style=&quot;width: 78px ; height: 14px ; border: 1px solid rgb(0 , 0 , 0) ; padding: 4px&quot;&gt;&lt;p style=&quot;margin: 0px&quot;&gt;&lt;font face=&quot;Helvetica&quot; size=&quot;2&quot; color=&quot;#000000&quot; style=&quot;font-style: normal ; font-weight: normal ; font-stretch: normal ; font-size: 10px ; line-height: normal ; font-family: &amp;quot;helvetica&amp;quot; ; color: rgb(0 , 0 , 0)&quot;&gt;Φ&lt;/font&gt;&lt;/p&gt;&lt;/td&gt;&lt;td valign=&quot;top&quot; style=&quot;width: 153px ; height: 14px ; border: 1px solid rgb(0 , 0 , 0) ; padding: 4px&quot;&gt;&lt;p style=&quot;margin: 0px&quot;&gt;&lt;font face=&quot;Helvetica Neue&quot; size=&quot;2&quot; color=&quot;#000000&quot; style=&quot;font-style: normal ; font-weight: normal ; font-stretch: normal ; font-size: 10px ; line-height: normal ; font-family: &amp;quot;helvetica neue&amp;quot; ; color: rgb(0 , 0 , 0)&quot;&gt;All PIA Enable&lt;/font&gt;&lt;/p&gt;&lt;/td&gt;&lt;td valign=&quot;top&quot; style=&quot;width: 210px ; height: 14px ; border: 1px solid rgb(0 , 0 , 0) ; padding: 4px&quot;&gt;&lt;p style=&quot;margin: 0px&quot;&gt;&lt;font face=&quot;Helvetica Neue&quot; size=&quot;2&quot; color=&quot;#000000&quot; style=&quot;font-style: normal ; font-weight: normal ; font-stretch: normal ; font-size: 10px ; line-height: normal ; font-family: &amp;quot;helvetica neue&amp;quot; ; color: rgb(0 , 0 , 0)&quot;&gt;Output from MPU, “Clock / Enable”&lt;/font&gt;&lt;/p&gt;&lt;/td&gt;&lt;/tr&gt;&lt;tr&gt;&lt;td valign=&quot;top&quot; style=&quot;width: 78px ; height: 13px ; background-color: rgb(239 , 239 , 239) ; border: 1px solid rgb(0 , 0 , 0) ; padding: 4px&quot;&gt;&lt;p style=&quot;margin: 0px&quot;&gt;&lt;font face=&quot;Helvetica&quot; size=&quot;2&quot; color=&quot;#000000&quot; style=&quot;font-style: normal ; font-weight: normal ; font-stretch: normal ; font-size: 10px ; line-height: normal ; font-family: &amp;quot;helvetica&amp;quot; ; color: rgb(0 , 0 , 0)&quot;&gt;R/W’&lt;/font&gt;&lt;/p&gt;&lt;/td&gt;&lt;td valign=&quot;top&quot; style=&quot;width: 153px ; height: 13px ; background-color: rgb(239 , 239 , 239) ; border: 1px solid rgb(0 , 0 , 0) ; padding: 4px&quot;&gt;&lt;p style=&quot;margin: 0px&quot;&gt;&lt;font face=&quot;Helvetica Neue&quot; size=&quot;2&quot; color=&quot;#000000&quot; style=&quot;font-style: normal ; font-weight: normal ; font-stretch: normal ; font-size: 10px ; line-height: normal ; font-family: &amp;quot;helvetica neue&amp;quot; ; color: rgb(0 , 0 , 0)&quot;&gt;All PIA RW&lt;/font&gt;&lt;/p&gt;&lt;/td&gt;&lt;td valign=&quot;top&quot; style=&quot;width: 210px ; height: 13px ; background-color: rgb(239 , 239 , 239) ; border: 1px solid rgb(0 , 0 , 0) ; padding: 4px&quot;&gt;&lt;p style=&quot;margin: 0px&quot;&gt;&lt;font face=&quot;Helvetica Neue&quot; size=&quot;2&quot; color=&quot;#000000&quot; style=&quot;font-style: normal ; font-weight: normal ; font-stretch: normal ; font-size: 10px ; line-height: normal ; font-family: &amp;quot;helvetica neue&amp;quot; ; color: rgb(0 , 0 , 0)&quot;&gt;Output from MPU&lt;/font&gt;&lt;/p&gt;&lt;/td&gt;&lt;/tr&gt;&lt;tr&gt;&lt;td valign=&quot;top&quot; style=&quot;width: 78px ; height: 14px ; border: 1px solid rgb(0 , 0 , 0) ; padding: 4px&quot;&gt;&lt;p style=&quot;margin: 0px&quot;&gt;&lt;font face=&quot;Helvetica&quot; size=&quot;2&quot; color=&quot;#000000&quot; style=&quot;font-style: normal ; font-weight: normal ; font-stretch: normal ; font-size: 10px ; line-height: normal ; font-family: &amp;quot;helvetica&amp;quot; ; color: rgb(0 , 0 , 0)&quot;&gt;D0-8&lt;/font&gt;&lt;/p&gt;&lt;/td&gt;&lt;td valign=&quot;top&quot; style=&quot;width: 153px ; height: 14px ; border: 1px solid rgb(0 , 0 , 0) ; padding: 4px&quot;&gt;&lt;p style=&quot;margin: 0px&quot;&gt;&lt;font face=&quot;Helvetica Neue&quot; size=&quot;2&quot; color=&quot;#000000&quot; style=&quot;font-style: normal ; font-weight: normal ; font-stretch: normal ; font-size: 10px ; line-height: normal ; font-family: &amp;quot;helvetica neue&amp;quot; ; color: rgb(0 , 0 , 0)&quot;&gt;All PIA D0-8&lt;/font&gt;&lt;/p&gt;&lt;/td&gt;&lt;td valign=&quot;top&quot; style=&quot;width: 210px ; height: 14px ; border: 1px solid rgb(0 , 0 , 0) ; padding: 4px&quot;&gt;&lt;p style=&quot;margin: 0px&quot;&gt;&lt;font face=&quot;Helvetica Neue&quot; size=&quot;2&quot; color=&quot;#000000&quot; style=&quot;font-style: normal ; font-weight: normal ; font-stretch: normal ; font-size: 10px ; line-height: normal ; font-family: &amp;quot;helvetica neue&amp;quot; ; color: rgb(0 , 0 , 0)&quot;&gt;Bi directional data&lt;/font&gt;&lt;/p&gt;&lt;/td&gt;&lt;/tr&gt;&lt;tr&gt;&lt;td valign=&quot;top&quot; style=&quot;width: 78px ; height: 14px ; background-color: rgb(239 , 239 , 239) ; border: 1px solid rgb(0 , 0 , 0) ; padding: 4px&quot;&gt;&lt;p style=&quot;margin: 0px&quot;&gt;&lt;font face=&quot;Helvetica&quot; size=&quot;2&quot; color=&quot;#000000&quot; style=&quot;font-style: normal ; font-weight: normal ; font-stretch: normal ; font-size: 10px ; line-height: normal ; font-family: &amp;quot;helvetica&amp;quot; ; color: rgb(0 , 0 , 0)&quot;&gt;Blanking&lt;/font&gt;&lt;/p&gt;&lt;/td&gt;&lt;td valign=&quot;top&quot; style=&quot;width: 153px ; height: 14px ; background-color: rgb(239 , 239 , 239) ; border: 1px solid rgb(0 , 0 , 0) ; padding: 4px&quot;&gt;&lt;p style=&quot;margin: 0px&quot;&gt;&lt;font face=&quot;Helvetica Neue&quot; size=&quot;2&quot; color=&quot;#000000&quot; style=&quot;font-style: normal ; font-weight: normal ; font-stretch: normal ; font-size: 10px ; line-height: normal ; font-family: &amp;quot;helvetica neue&amp;quot; ; color: rgb(0 , 0 , 0)&quot;&gt;All high power drivers enable&lt;/font&gt;&lt;/p&gt;&lt;/td&gt;&lt;td valign=&quot;top&quot; style=&quot;width: 210px ; height: 14px ; background-color: rgb(239 , 239 , 239) ; border: 1px solid rgb(0 , 0 , 0) ; padding: 4px&quot;&gt;&lt;p style=&quot;margin: 0px&quot;&gt;&lt;font face=&quot;Helvetica Neue&quot; size=&quot;2&quot; color=&quot;#000000&quot; style=&quot;font-style: normal ; font-weight: normal ; font-stretch: normal ; font-size: 10px ; line-height: normal ; font-family: &amp;quot;helvetica neue&amp;quot; ; color: rgb(0 , 0 , 0)&quot;&gt;Output from MPU, high signal disables drivers&lt;/font&gt;&lt;/p&gt;&lt;/td&gt;&lt;/tr&gt;&lt;tr&gt;&lt;td valign=&quot;top&quot; style=&quot;width: 78px ; height: 14px ; border: 1px solid rgb(0 , 0 , 0) ; padding: 4px&quot;&gt;&lt;p style=&quot;margin: 0px&quot;&gt;&lt;font face=&quot;Helvetica&quot; size=&quot;2&quot; color=&quot;#000000&quot; style=&quot;font-style: normal ; font-weight: normal ; font-stretch: normal ; font-size: 10px ; line-height: normal ; font-family: &amp;quot;helvetica&amp;quot; ; color: rgb(0 , 0 , 0)&quot;&gt;ST6’&lt;/font&gt;&lt;/p&gt;&lt;/td&gt;&lt;td valign=&quot;top&quot; style=&quot;width: 153px ; height: 14px ; border: 1px solid rgb(0 , 0 , 0) ; padding: 4px&quot;&gt;&lt;p style=&quot;margin: 0px&quot;&gt;&lt;font face=&quot;Helvetica Neue&quot; size=&quot;2&quot; color=&quot;#000000&quot; style=&quot;font-style: normal ; font-weight: normal ; font-stretch: normal ; font-size: 10px ; line-height: normal ; font-family: &amp;quot;helvetica neue&amp;quot; ; color: rgb(0 , 0 , 0)&quot;&gt;Solenoid Driver #6&lt;/font&gt;&lt;/p&gt;&lt;/td&gt;&lt;td valign=&quot;top&quot; style=&quot;width: 210px ; height: 14px ; border: 1px solid rgb(0 , 0 , 0) ; padding: 4px&quot;&gt;&lt;p style=&quot;margin: 0px&quot;&gt;&lt;font face=&quot;Helvetica Neue&quot; size=&quot;2&quot; color=&quot;#000000&quot; style=&quot;font-style: normal ; font-weight: normal ; font-stretch: normal ; font-size: 10px ; line-height: normal ; font-family: &amp;quot;helvetica neue&amp;quot; ; color: rgb(0 , 0 , 0)&quot;&gt;Output from MPU.&lt;span class=&quot;Apple-converted-space&quot;&gt;&amp;nbsp;&lt;span class=&quot;Apple-converted-space&quot;&gt;&amp;nbsp;&lt;/span&gt;&lt;/span&gt;Allows SW ctl of solenoid.&lt;/font&gt;&lt;/p&gt;&lt;/td&gt;&lt;/tr&gt;&lt;tr&gt;&lt;td valign=&quot;top&quot; style=&quot;width: 78px ; height: 13px ; background-color: rgb(239 , 239 , 239) ; border: 1px solid rgb(0 , 0 , 0) ; padding: 4px&quot;&gt;&lt;p style=&quot;margin: 0px&quot;&gt;&lt;font face=&quot;Helvetica&quot; size=&quot;2&quot; color=&quot;#000000&quot; style=&quot;font-style: normal ; font-weight: normal ; font-stretch: normal ; font-size: 10px ; line-height: normal ; font-family: &amp;quot;helvetica&amp;quot; ; color: rgb(0 , 0 , 0)&quot;&gt;Reset’&lt;/font&gt;&lt;/p&gt;&lt;/td&gt;&lt;td valign=&quot;top&quot; style=&quot;width: 153px ; height: 13px ; background-color: rgb(239 , 239 , 239) ; border: 1px solid rgb(0 , 0 , 0) ; padding: 4px&quot;&gt;&lt;p style=&quot;margin: 0px&quot;&gt;&lt;font face=&quot;Helvetica Neue&quot; size=&quot;2&quot; color=&quot;#000000&quot; style=&quot;font-style: normal ; font-weight: normal ; font-stretch: normal ; font-size: 10px ; line-height: normal ; font-family: &amp;quot;helvetica neue&amp;quot; ; color: rgb(0 , 0 , 0)&quot;&gt;All PIA&lt;/font&gt;&lt;/p&gt;&lt;/td&gt;&lt;td valign=&quot;top&quot; style=&quot;width: 210px ; height: 13px ; background-color: rgb(239 , 239 , 239) ; border: 1px solid rgb(0 , 0 , 0) ; padding: 4px&quot;&gt;&lt;p style=&quot;margin: 0px&quot;&gt;&lt;font face=&quot;Helvetica Neue&quot; size=&quot;2&quot; color=&quot;#000000&quot; style=&quot;font-style: normal ; font-weight: normal ; font-stretch: normal ; font-size: 10px ; line-height: normal ; font-family: &amp;quot;helvetica neue&amp;quot; ; color: rgb(0 , 0 , 0)&quot;&gt;Output from MPU&lt;/font&gt;&lt;/p&gt;&lt;/td&gt;&lt;/tr&gt;&lt;tr&gt;&lt;td valign=&quot;top&quot; style=&quot;width: 78px ; height: 14px ; border: 1px solid rgb(0 , 0 , 0) ; padding: 4px&quot;&gt;&lt;p style=&quot;margin: 0px&quot;&gt;&lt;font face=&quot;Helvetica&quot; size=&quot;2&quot; color=&quot;#000000&quot; style=&quot;font-style: normal ; font-weight: normal ; font-stretch: normal ; font-size: 10px ; line-height: normal ; font-family: &amp;quot;helvetica&amp;quot; ; color: rgb(0 , 0 , 0)&quot;&gt;IRQ’&lt;/font&gt;&lt;/p&gt;&lt;/td&gt;&lt;td valign=&quot;top&quot; style=&quot;width: 153px ; height: 14px ; border: 1px solid rgb(0 , 0 , 0) ; padding: 4px&quot;&gt;&lt;p style=&quot;margin: 0px&quot;&gt;&lt;font face=&quot;Helvetica Neue&quot; size=&quot;2&quot; color=&quot;#000000&quot; style=&quot;font-style: normal ; font-weight: normal ; font-stretch: normal ; font-size: 10px ; line-height: normal ; font-family: &amp;quot;helvetica neue&amp;quot; ; color: rgb(0 , 0 , 0)&quot;&gt;From all PIA&lt;/font&gt;&lt;/p&gt;&lt;/td&gt;&lt;td valign=&quot;top&quot; style=&quot;width: 210px ; height: 14px ; border: 1px solid rgb(0 , 0 , 0) ; padding: 4px&quot;&gt;&lt;p style=&quot;margin: 0px&quot;&gt;&lt;font face=&quot;Helvetica Neue&quot; size=&quot;2&quot; color=&quot;#000000&quot; style=&quot;font-style: normal ; font-weight: normal ; font-stretch: normal ; font-size: 10px ; line-height: normal ; font-family: &amp;quot;helvetica neue&amp;quot; ; color: rgb(0 , 0 , 0)&quot;&gt;Input to MPU&lt;/font&gt;&lt;/p&gt;&lt;/td&gt;&lt;/tr&gt;&lt;/tbody&gt;&lt;/table&gt;" style="text;whiteSpace=wrap;html=1;fontSize=14;" vertex="1" parent="1">
          <mxGeometry x="1020" y="815" width="490" height="430" as="geometry" />
        </mxCell>
        <mxCell id="7ul09Yu6RcDukH9-tw2m-158" value="1J1 - 40 Pin header signal overview" style="text;html=1;strokeColor=none;fillColor=none;align=center;verticalAlign=middle;whiteSpace=wrap;rounded=0;fontSize=14;" vertex="1" parent="1">
          <mxGeometry x="1020" y="790" width="230" height="20" as="geometry" />
        </mxCell>
        <mxCell id="7ul09Yu6RcDukH9-tw2m-159" value="LC1" style="text;html=1;strokeColor=none;fillColor=none;align=center;verticalAlign=middle;whiteSpace=wrap;rounded=0;fontSize=14;" vertex="1" parent="1">
          <mxGeometry x="340" y="200" width="40" height="20" as="geometry" />
        </mxCell>
        <mxCell id="7ul09Yu6RcDukH9-tw2m-160" value="LC2" style="text;html=1;strokeColor=none;fillColor=none;align=center;verticalAlign=middle;whiteSpace=wrap;rounded=0;fontSize=14;" vertex="1" parent="1">
          <mxGeometry x="340" y="450" width="40" height="20" as="geometry" />
        </mxCell>
        <mxCell id="7ul09Yu6RcDukH9-tw2m-161" value="LC3" style="text;html=1;strokeColor=none;fillColor=none;align=center;verticalAlign=middle;whiteSpace=wrap;rounded=0;fontSize=14;" vertex="1" parent="1">
          <mxGeometry x="340" y="660" width="40" height="20" as="geometry" />
        </mxCell>
        <mxCell id="7ul09Yu6RcDukH9-tw2m-162" value="LC4" style="text;html=1;strokeColor=none;fillColor=none;align=center;verticalAlign=middle;whiteSpace=wrap;rounded=0;fontSize=14;" vertex="1" parent="1">
          <mxGeometry x="340" y="920" width="40" height="20" as="geometry" />
        </mxCell>
        <mxCell id="7ul09Yu6RcDukH9-tw2m-164" value="&lt;table cellspacing=&quot;0&quot; cellpadding=&quot;0&quot; style=&quot;color: rgb(0, 0, 0); font-style: normal; font-weight: normal; letter-spacing: normal; text-indent: 0px; text-transform: none; word-spacing: 0px; text-decoration: none; border-collapse: collapse;&quot;&gt;&lt;tbody&gt;&lt;tr&gt;&lt;td valign=&quot;top&quot; style=&quot;width: 108px ; height: 14px ; background-color: rgb(190 , 192 , 191) ; border: 1px solid rgb(0 , 0 , 0) ; padding: 4px&quot;&gt;&lt;p style=&quot;margin: 0px&quot;&gt;&lt;font face=&quot;Helvetica Neue&quot; size=&quot;2&quot; color=&quot;#000000&quot; style=&quot;font-style: normal ; font-weight: normal ; font-stretch: normal ; font-size: 10px ; line-height: normal ; font-family: &amp;quot;helvetica neue&amp;quot; ; color: rgb(0 , 0 , 0)&quot;&gt;&lt;b&gt;WMS IB 40 Pin&lt;/b&gt;&lt;/font&gt;&lt;/p&gt;&lt;/td&gt;&lt;td valign=&quot;top&quot; style=&quot;width: 108px ; height: 14px ; background-color: rgb(190 , 192 , 191) ; border: 1px solid rgb(0 , 0 , 0) ; padding: 4px&quot;&gt;&lt;p style=&quot;margin: 0px&quot;&gt;&lt;font face=&quot;Helvetica Neue&quot; size=&quot;2&quot; color=&quot;#000000&quot; style=&quot;font-style: normal ; font-weight: normal ; font-stretch: normal ; font-size: 10px ; line-height: normal ; font-family: &amp;quot;helvetica neue&amp;quot; ; color: rgb(0 , 0 , 0)&quot;&gt;&lt;b&gt;Connects to&lt;/b&gt;&lt;/font&gt;&lt;/p&gt;&lt;/td&gt;&lt;td valign=&quot;top&quot; style=&quot;width: 108px ; height: 14px ; background-color: rgb(190 , 192 , 191) ; border: 1px solid rgb(0 , 0 , 0) ; padding: 4px&quot;&gt;&lt;p style=&quot;margin: 0px&quot;&gt;&lt;font face=&quot;Helvetica Neue&quot; size=&quot;2&quot; color=&quot;#000000&quot; style=&quot;font-style: normal ; font-weight: normal ; font-stretch: normal ; font-size: 10px ; line-height: normal ; font-family: &amp;quot;helvetica neue&amp;quot; ; color: rgb(0 , 0 , 0)&quot;&gt;&lt;b&gt;WMS IB 40 Pin&lt;/b&gt;&lt;/font&gt;&lt;/p&gt;&lt;/td&gt;&lt;td valign=&quot;top&quot; style=&quot;width: 108px ; height: 14px ; background-color: rgb(190 , 192 , 191) ; border: 1px solid rgb(0 , 0 , 0) ; padding: 4px&quot;&gt;&lt;p style=&quot;margin: 0px&quot;&gt;&lt;font face=&quot;Helvetica Neue&quot; size=&quot;2&quot; color=&quot;#000000&quot; style=&quot;font-style: normal ; font-weight: normal ; font-stretch: normal ; font-size: 10px ; line-height: normal ; font-family: &amp;quot;helvetica neue&amp;quot; ; color: rgb(0 , 0 , 0)&quot;&gt;&lt;b&gt;Connects to&lt;/b&gt;&lt;/font&gt;&lt;/p&gt;&lt;/td&gt;&lt;/tr&gt;&lt;tr&gt;&lt;td valign=&quot;top&quot; style=&quot;width: 108px ; height: 14px ; border: 1px solid rgb(0 , 0 , 0) ; padding: 4px&quot;&gt;&lt;p style=&quot;margin: 0px&quot;&gt;&lt;font face=&quot;Helvetica Neue&quot; size=&quot;2&quot; color=&quot;#000000&quot; style=&quot;font-style: normal ; font-weight: normal ; font-stretch: normal ; font-size: 10px ; line-height: normal ; font-family: &amp;quot;helvetica neue&amp;quot; ; color: rgb(0 , 0 , 0)&quot;&gt;1J1-1 - 5V&lt;/font&gt;&lt;/p&gt;&lt;/td&gt;&lt;td valign=&quot;top&quot; style=&quot;width: 108px ; height: 14px ; border: 1px solid rgb(0 , 0 , 0) ; padding: 4px&quot;&gt;&lt;p style=&quot;margin: 0px&quot;&gt;&lt;font face=&quot;Helvetica Neue&quot; size=&quot;2&quot; color=&quot;#000000&quot; style=&quot;font-style: normal ; font-weight: normal ; font-stretch: normal ; font-size: 10px ; line-height: normal ; font-family: &amp;quot;helvetica neue&amp;quot; ; color: rgb(0 , 0 , 0)&quot;&gt;Power +5V&lt;/font&gt;&lt;/p&gt;&lt;/td&gt;&lt;td valign=&quot;top&quot; style=&quot;width: 108px ; height: 14px ; border: 1px solid rgb(0 , 0 , 0) ; padding: 4px&quot;&gt;&lt;p style=&quot;margin: 0px&quot;&gt;&lt;font face=&quot;Helvetica Neue&quot; size=&quot;2&quot; color=&quot;#000000&quot; style=&quot;font-style: normal ; font-weight: normal ; font-stretch: normal ; font-size: 10px ; line-height: normal ; font-family: &amp;quot;helvetica neue&amp;quot; ; color: rgb(0 , 0 , 0)&quot;&gt;1J1-21 - A0&lt;/font&gt;&lt;/p&gt;&lt;/td&gt;&lt;td valign=&quot;top&quot; style=&quot;width: 108px ; height: 14px ; border: 1px solid rgb(0 , 0 , 0) ; padding: 4px&quot;&gt;&lt;p style=&quot;margin: 0px&quot;&gt;&lt;font face=&quot;Helvetica Neue&quot; size=&quot;2&quot; color=&quot;#000000&quot; style=&quot;font-style: normal ; font-weight: normal ; font-stretch: normal ; font-size: 10px ; line-height: normal ; font-family: &amp;quot;helvetica neue&amp;quot; ; color: rgb(0 , 0 , 0)&quot;&gt;LC1 Port 1p6&lt;/font&gt;&lt;/p&gt;&lt;/td&gt;&lt;/tr&gt;&lt;tr&gt;&lt;td valign=&quot;top&quot; style=&quot;width: 108px ; height: 13px ; background-color: rgb(239 , 239 , 239) ; border: 1px solid rgb(0 , 0 , 0) ; padding: 4px&quot;&gt;&lt;p style=&quot;margin: 0px&quot;&gt;&lt;font face=&quot;Helvetica Neue&quot; size=&quot;2&quot; color=&quot;#000000&quot; style=&quot;font-style: normal ; font-weight: normal ; font-stretch: normal ; font-size: 10px ; line-height: normal ; font-family: &amp;quot;helvetica neue&amp;quot; ; color: rgb(0 , 0 , 0)&quot;&gt;1J1-2 - 5V&lt;/font&gt;&lt;/p&gt;&lt;/td&gt;&lt;td valign=&quot;top&quot; style=&quot;width: 108px ; height: 13px ; background-color: rgb(239 , 239 , 239) ; border: 1px solid rgb(0 , 0 , 0) ; padding: 4px&quot;&gt;&lt;p style=&quot;margin: 0px&quot;&gt;&lt;font face=&quot;Helvetica Neue&quot; size=&quot;2&quot; color=&quot;#000000&quot; style=&quot;font-style: normal ; font-weight: normal ; font-stretch: normal ; font-size: 10px ; line-height: normal ; font-family: &amp;quot;helvetica neue&amp;quot; ; color: rgb(0 , 0 , 0)&quot;&gt;Power +5V&lt;/font&gt;&lt;/p&gt;&lt;/td&gt;&lt;td valign=&quot;top&quot; style=&quot;width: 108px ; height: 13px ; background-color: rgb(239 , 239 , 239) ; border: 1px solid rgb(0 , 0 , 0) ; padding: 4px&quot;&gt;&lt;p style=&quot;margin: 0px&quot;&gt;&lt;font face=&quot;Helvetica Neue&quot; size=&quot;2&quot; color=&quot;#000000&quot; style=&quot;font-style: normal ; font-weight: normal ; font-stretch: normal ; font-size: 10px ; line-height: normal ; font-family: &amp;quot;helvetica neue&amp;quot; ; color: rgb(0 , 0 , 0)&quot;&gt;1J1-22 - IRQ&lt;/font&gt;&lt;/p&gt;&lt;/td&gt;&lt;td valign=&quot;top&quot; style=&quot;width: 108px ; height: 13px ; background-color: rgb(239 , 239 , 239) ; border: 1px solid rgb(0 , 0 , 0) ; padding: 4px&quot;&gt;&lt;p style=&quot;margin: 0px&quot;&gt;&lt;font face=&quot;Helvetica Neue&quot; size=&quot;2&quot; color=&quot;#000000&quot; style=&quot;font-style: normal ; font-weight: normal ; font-stretch: normal ; font-size: 10px ; line-height: normal ; font-family: &amp;quot;helvetica neue&amp;quot; ; color: rgb(0 , 0 , 0)&quot;&gt;LC2 Port 2p1&lt;/font&gt;&lt;/p&gt;&lt;/td&gt;&lt;/tr&gt;&lt;tr&gt;&lt;td valign=&quot;top&quot; style=&quot;width: 108px ; height: 14px ; border: 1px solid rgb(0 , 0 , 0) ; padding: 4px&quot;&gt;&lt;p style=&quot;margin: 0px&quot;&gt;&lt;font face=&quot;Helvetica Neue&quot; size=&quot;2&quot; color=&quot;#000000&quot; style=&quot;font-style: normal ; font-weight: normal ; font-stretch: normal ; font-size: 10px ; line-height: normal ; font-family: &amp;quot;helvetica neue&amp;quot; ; color: rgb(0 , 0 , 0)&quot;&gt;1J1-3 - NC&lt;/font&gt;&lt;/p&gt;&lt;/td&gt;&lt;td valign=&quot;top&quot; style=&quot;width: 108px ; height: 14px ; border: 1px solid rgb(0 , 0 , 0) ; padding: 4px&quot;&gt;&lt;p style=&quot;margin: 0px&quot;&gt;&lt;font face=&quot;Helvetica Neue&quot; size=&quot;2&quot; color=&quot;#000000&quot; style=&quot;font-style: normal ; font-weight: normal ; font-stretch: normal ; font-size: 10px ; line-height: normal ; font-family: &amp;quot;helvetica neue&amp;quot; ; color: rgb(0 , 0 , 0)&quot;&gt;NC&lt;/font&gt;&lt;/p&gt;&lt;/td&gt;&lt;td valign=&quot;top&quot; style=&quot;width: 108px ; height: 14px ; border: 1px solid rgb(0 , 0 , 0) ; padding: 4px&quot;&gt;&lt;p style=&quot;margin: 0px&quot;&gt;&lt;font face=&quot;Helvetica Neue&quot; size=&quot;2&quot; color=&quot;#000000&quot; style=&quot;font-style: normal ; font-weight: normal ; font-stretch: normal ; font-size: 10px ; line-height: normal ; font-family: &amp;quot;helvetica neue&amp;quot; ; color: rgb(0 , 0 , 0)&quot;&gt;1J1-23 - A9&lt;/font&gt;&lt;/p&gt;&lt;/td&gt;&lt;td valign=&quot;top&quot; style=&quot;width: 108px ; height: 14px ; border: 1px solid rgb(0 , 0 , 0) ; padding: 4px&quot;&gt;&lt;p style=&quot;margin: 0px&quot;&gt;&lt;font face=&quot;Helvetica Neue&quot; size=&quot;2&quot; color=&quot;#000000&quot; style=&quot;font-style: normal ; font-weight: normal ; font-stretch: normal ; font-size: 10px ; line-height: normal ; font-family: &amp;quot;helvetica neue&amp;quot; ; color: rgb(0 , 0 , 0)&quot;&gt;LC1 Port 1p7&lt;/font&gt;&lt;/p&gt;&lt;/td&gt;&lt;/tr&gt;&lt;tr&gt;&lt;td valign=&quot;top&quot; style=&quot;width: 108px ; height: 14px ; background-color: rgb(239 , 239 , 239) ; border: 1px solid rgb(0 , 0 , 0) ; padding: 4px&quot;&gt;&lt;p style=&quot;margin: 0px&quot;&gt;&lt;font face=&quot;Helvetica Neue&quot; size=&quot;2&quot; color=&quot;#000000&quot; style=&quot;font-style: normal ; font-weight: normal ; font-stretch: normal ; font-size: 10px ; line-height: normal ; font-family: &amp;quot;helvetica neue&amp;quot; ; color: rgb(0 , 0 , 0)&quot;&gt;1J1-4 - NC&lt;/font&gt;&lt;/p&gt;&lt;/td&gt;&lt;td valign=&quot;top&quot; style=&quot;width: 108px ; height: 14px ; background-color: rgb(239 , 239 , 239) ; border: 1px solid rgb(0 , 0 , 0) ; padding: 4px&quot;&gt;&lt;p style=&quot;margin: 0px&quot;&gt;&lt;font face=&quot;Helvetica Neue&quot; size=&quot;2&quot; color=&quot;#000000&quot; style=&quot;font-style: normal ; font-weight: normal ; font-stretch: normal ; font-size: 10px ; line-height: normal ; font-family: &amp;quot;helvetica neue&amp;quot; ; color: rgb(0 , 0 , 0)&quot;&gt;NC&lt;/font&gt;&lt;/p&gt;&lt;/td&gt;&lt;td valign=&quot;top&quot; style=&quot;width: 108px ; height: 14px ; background-color: rgb(239 , 239 , 239) ; border: 1px solid rgb(0 , 0 , 0) ; padding: 4px&quot;&gt;&lt;p style=&quot;margin: 0px&quot;&gt;&lt;font face=&quot;Helvetica Neue&quot; size=&quot;2&quot; color=&quot;#000000&quot; style=&quot;font-style: normal ; font-weight: normal ; font-stretch: normal ; font-size: 10px ; line-height: normal ; font-family: &amp;quot;helvetica neue&amp;quot; ; color: rgb(0 , 0 , 0)&quot;&gt;1J1-24 - A13&lt;/font&gt;&lt;/p&gt;&lt;/td&gt;&lt;td valign=&quot;top&quot; style=&quot;width: 108px ; height: 14px ; background-color: rgb(239 , 239 , 239) ; border: 1px solid rgb(0 , 0 , 0) ; padding: 4px&quot;&gt;&lt;p style=&quot;margin: 0px&quot;&gt;&lt;font face=&quot;Helvetica Neue&quot; size=&quot;2&quot; color=&quot;#000000&quot; style=&quot;font-style: normal ; font-weight: normal ; font-stretch: normal ; font-size: 10px ; line-height: normal ; font-family: &amp;quot;helvetica neue&amp;quot; ; color: rgb(0 , 0 , 0)&quot;&gt;+5V&lt;/font&gt;&lt;/p&gt;&lt;/td&gt;&lt;/tr&gt;&lt;tr&gt;&lt;td valign=&quot;top&quot; style=&quot;width: 108px ; height: 14px ; border: 1px solid rgb(0 , 0 , 0) ; padding: 4px&quot;&gt;&lt;p style=&quot;margin: 0px&quot;&gt;&lt;font face=&quot;Helvetica Neue&quot; size=&quot;2&quot; color=&quot;#000000&quot; style=&quot;font-style: normal ; font-weight: normal ; font-stretch: normal ; font-size: 10px ; line-height: normal ; font-family: &amp;quot;helvetica neue&amp;quot; ; color: rgb(0 , 0 , 0)&quot;&gt;1J1-5 - NC&lt;/font&gt;&lt;/p&gt;&lt;/td&gt;&lt;td valign=&quot;top&quot; style=&quot;width: 108px ; height: 14px ; border: 1px solid rgb(0 , 0 , 0) ; padding: 4px&quot;&gt;&lt;p style=&quot;margin: 0px&quot;&gt;&lt;font face=&quot;Helvetica Neue&quot; size=&quot;2&quot; color=&quot;#000000&quot; style=&quot;font-style: normal ; font-weight: normal ; font-stretch: normal ; font-size: 10px ; line-height: normal ; font-family: &amp;quot;helvetica neue&amp;quot; ; color: rgb(0 , 0 , 0)&quot;&gt;NC&lt;/font&gt;&lt;/p&gt;&lt;/td&gt;&lt;td valign=&quot;top&quot; style=&quot;width: 108px ; height: 14px ; border: 1px solid rgb(0 , 0 , 0) ; padding: 4px&quot;&gt;&lt;p style=&quot;margin: 0px&quot;&gt;&lt;font face=&quot;Helvetica Neue&quot; size=&quot;2&quot; color=&quot;#000000&quot; style=&quot;font-style: normal ; font-weight: normal ; font-stretch: normal ; font-size: 10px ; line-height: normal ; font-family: &amp;quot;helvetica neue&amp;quot; ; color: rgb(0 , 0 , 0)&quot;&gt;1J1-25 - VMA&lt;/font&gt;&lt;/p&gt;&lt;/td&gt;&lt;td valign=&quot;top&quot; style=&quot;width: 108px ; height: 14px ; border: 1px solid rgb(0 , 0 , 0) ; padding: 4px&quot;&gt;&lt;p style=&quot;margin: 0px&quot;&gt;&lt;font face=&quot;Helvetica Neue&quot; size=&quot;2&quot; color=&quot;#000000&quot; style=&quot;font-style: normal ; font-weight: normal ; font-stretch: normal ; font-size: 10px ; line-height: normal ; font-family: &amp;quot;helvetica neue&amp;quot; ; color: rgb(0 , 0 , 0)&quot;&gt;+5V&lt;/font&gt;&lt;/p&gt;&lt;/td&gt;&lt;/tr&gt;&lt;tr&gt;&lt;td valign=&quot;top&quot; style=&quot;width: 108px ; height: 13px ; background-color: rgb(239 , 239 , 239) ; border: 1px solid rgb(0 , 0 , 0) ; padding: 4px&quot;&gt;&lt;p style=&quot;margin: 0px&quot;&gt;&lt;font face=&quot;Helvetica Neue&quot; size=&quot;2&quot; color=&quot;#000000&quot; style=&quot;font-style: normal ; font-weight: normal ; font-stretch: normal ; font-size: 10px ; line-height: normal ; font-family: &amp;quot;helvetica neue&amp;quot; ; color: rgb(0 , 0 , 0)&quot;&gt;1J1-6 - R/W&lt;/font&gt;&lt;/p&gt;&lt;/td&gt;&lt;td valign=&quot;top&quot; style=&quot;width: 108px ; height: 13px ; background-color: rgb(239 , 239 , 239) ; border: 1px solid rgb(0 , 0 , 0) ; padding: 4px&quot;&gt;&lt;p style=&quot;margin: 0px&quot;&gt;&lt;font face=&quot;Helvetica Neue&quot; size=&quot;2&quot; color=&quot;#000000&quot; style=&quot;font-style: normal ; font-weight: normal ; font-stretch: normal ; font-size: 10px ; line-height: normal ; font-family: &amp;quot;helvetica neue&amp;quot; ; color: rgb(0 , 0 , 0)&quot;&gt;LC1 Port 2p1&lt;/font&gt;&lt;/p&gt;&lt;/td&gt;&lt;td valign=&quot;top&quot; style=&quot;width: 108px ; height: 13px ; background-color: rgb(239 , 239 , 239) ; border: 1px solid rgb(0 , 0 , 0) ; padding: 4px&quot;&gt;&lt;p style=&quot;margin: 0px&quot;&gt;&lt;font face=&quot;Helvetica Neue&quot; size=&quot;2&quot; color=&quot;#000000&quot; style=&quot;font-style: normal ; font-weight: normal ; font-stretch: normal ; font-size: 10px ; line-height: normal ; font-family: &amp;quot;helvetica neue&amp;quot; ; color: rgb(0 , 0 , 0)&quot;&gt;1J1-26 - ST6&lt;/font&gt;&lt;/p&gt;&lt;/td&gt;&lt;td valign=&quot;top&quot; style=&quot;width: 108px ; height: 13px ; background-color: rgb(239 , 239 , 239) ; border: 1px solid rgb(0 , 0 , 0) ; padding: 4px&quot;&gt;&lt;p style=&quot;margin: 0px&quot;&gt;&lt;font face=&quot;Helvetica Neue&quot; size=&quot;2&quot; color=&quot;#000000&quot; style=&quot;font-style: normal ; font-weight: normal ; font-stretch: normal ; font-size: 10px ; line-height: normal ; font-family: &amp;quot;helvetica neue&amp;quot; ; color: rgb(0 , 0 , 0)&quot;&gt;LC1 Port 1p8&lt;/font&gt;&lt;/p&gt;&lt;/td&gt;&lt;/tr&gt;&lt;tr&gt;&lt;td valign=&quot;top&quot; style=&quot;width: 108px ; height: 14px ; border: 1px solid rgb(0 , 0 , 0) ; padding: 4px&quot;&gt;&lt;p style=&quot;margin: 0px&quot;&gt;&lt;font face=&quot;Helvetica Neue&quot; size=&quot;2&quot; color=&quot;#000000&quot; style=&quot;font-style: normal ; font-weight: normal ; font-stretch: normal ; font-size: 10px ; line-height: normal ; font-family: &amp;quot;helvetica neue&amp;quot; ; color: rgb(0 , 0 , 0)&quot;&gt;1J1-7 - A14&lt;/font&gt;&lt;/p&gt;&lt;/td&gt;&lt;td valign=&quot;top&quot; style=&quot;width: 108px ; height: 14px ; border: 1px solid rgb(0 , 0 , 0) ; padding: 4px&quot;&gt;&lt;p style=&quot;margin: 0px&quot;&gt;&lt;font face=&quot;Helvetica Neue&quot; size=&quot;2&quot; color=&quot;#000000&quot; style=&quot;font-style: normal ; font-weight: normal ; font-stretch: normal ; font-size: 10px ; line-height: normal ; font-family: &amp;quot;helvetica neue&amp;quot; ; color: rgb(0 , 0 , 0)&quot;&gt;GND&lt;/font&gt;&lt;/p&gt;&lt;/td&gt;&lt;td valign=&quot;top&quot; style=&quot;width: 108px ; height: 14px ; border: 1px solid rgb(0 , 0 , 0) ; padding: 4px&quot;&gt;&lt;p style=&quot;margin: 0px&quot;&gt;&lt;font face=&quot;Helvetica Neue&quot; size=&quot;2&quot; color=&quot;#000000&quot; style=&quot;font-style: normal ; font-weight: normal ; font-stretch: normal ; font-size: 10px ; line-height: normal ; font-family: &amp;quot;helvetica neue&amp;quot; ; color: rgb(0 , 0 , 0)&quot;&gt;1J1-27 - A2&lt;/font&gt;&lt;/p&gt;&lt;/td&gt;&lt;td valign=&quot;top&quot; style=&quot;width: 108px ; height: 14px ; border: 1px solid rgb(0 , 0 , 0) ; padding: 4px&quot;&gt;&lt;p style=&quot;margin: 0px&quot;&gt;&lt;font face=&quot;Helvetica Neue&quot; size=&quot;2&quot; color=&quot;#000000&quot; style=&quot;font-style: normal ; font-weight: normal ; font-stretch: normal ; font-size: 10px ; line-height: normal ; font-family: &amp;quot;helvetica neue&amp;quot; ; color: rgb(0 , 0 , 0)&quot;&gt;NC&lt;/font&gt;&lt;/p&gt;&lt;/td&gt;&lt;/tr&gt;&lt;tr&gt;&lt;td valign=&quot;top&quot; style=&quot;width: 108px ; height: 14px ; background-color: rgb(239 , 239 , 239) ; border: 1px solid rgb(0 , 0 , 0) ; padding: 4px&quot;&gt;&lt;p style=&quot;margin: 0px&quot;&gt;&lt;font face=&quot;Helvetica Neue&quot; size=&quot;2&quot; color=&quot;#000000&quot; style=&quot;font-style: normal ; font-weight: normal ; font-stretch: normal ; font-size: 10px ; line-height: normal ; font-family: &amp;quot;helvetica neue&amp;quot; ; color: rgb(0 , 0 , 0)&quot;&gt;1J1-8 - A12&lt;/font&gt;&lt;/p&gt;&lt;/td&gt;&lt;td valign=&quot;top&quot; style=&quot;width: 108px ; height: 14px ; background-color: rgb(239 , 239 , 239) ; border: 1px solid rgb(0 , 0 , 0) ; padding: 4px&quot;&gt;&lt;p style=&quot;margin: 0px&quot;&gt;&lt;font face=&quot;Helvetica Neue&quot; size=&quot;2&quot; color=&quot;#000000&quot; style=&quot;font-style: normal ; font-weight: normal ; font-stretch: normal ; font-size: 10px ; line-height: normal ; font-family: &amp;quot;helvetica neue&amp;quot; ; color: rgb(0 , 0 , 0)&quot;&gt;LC1 Port 1p2&lt;/font&gt;&lt;/p&gt;&lt;/td&gt;&lt;td valign=&quot;top&quot; style=&quot;width: 108px ; height: 14px ; background-color: rgb(239 , 239 , 239) ; border: 1px solid rgb(0 , 0 , 0) ; padding: 4px&quot;&gt;&lt;p style=&quot;margin: 0px&quot;&gt;&lt;font face=&quot;Helvetica Neue&quot; size=&quot;2&quot; color=&quot;#000000&quot; style=&quot;font-style: normal ; font-weight: normal ; font-stretch: normal ; font-size: 10px ; line-height: normal ; font-family: &amp;quot;helvetica neue&amp;quot; ; color: rgb(0 , 0 , 0)&quot;&gt;1J1-28 - A3&lt;/font&gt;&lt;/p&gt;&lt;/td&gt;&lt;td valign=&quot;top&quot; style=&quot;width: 108px ; height: 14px ; background-color: rgb(239 , 239 , 239) ; border: 1px solid rgb(0 , 0 , 0) ; padding: 4px&quot;&gt;&lt;p style=&quot;margin: 0px&quot;&gt;&lt;font face=&quot;Helvetica Neue&quot; size=&quot;2&quot; color=&quot;#000000&quot; style=&quot;font-style: normal ; font-weight: normal ; font-stretch: normal ; font-size: 10px ; line-height: normal ; font-family: &amp;quot;helvetica neue&amp;quot; ; color: rgb(0 , 0 , 0)&quot;&gt;NC&lt;/font&gt;&lt;/p&gt;&lt;/td&gt;&lt;/tr&gt;&lt;tr&gt;&lt;td valign=&quot;top&quot; style=&quot;width: 108px ; height: 14px ; border: 1px solid rgb(0 , 0 , 0) ; padding: 4px&quot;&gt;&lt;p style=&quot;margin: 0px&quot;&gt;&lt;font face=&quot;Helvetica Neue&quot; size=&quot;2&quot; color=&quot;#000000&quot; style=&quot;font-style: normal ; font-weight: normal ; font-stretch: normal ; font-size: 10px ; line-height: normal ; font-family: &amp;quot;helvetica neue&amp;quot; ; color: rgb(0 , 0 , 0)&quot;&gt;1J1-9 - Bus&lt;span class=&quot;Apple-converted-space&quot;&gt;&amp;nbsp;&lt;/span&gt;&lt;/font&gt;&lt;font face=&quot;Helvetica&quot; size=&quot;2&quot; color=&quot;#000000&quot; style=&quot;font-style: normal ; font-weight: normal ; font-stretch: normal ; font-size: 10px ; line-height: normal ; font-family: &amp;quot;helvetica&amp;quot; ; color: rgb(0 , 0 , 0)&quot;&gt;Φ&lt;/font&gt;&lt;/p&gt;&lt;/td&gt;&lt;td valign=&quot;top&quot; style=&quot;width: 108px ; height: 14px ; border: 1px solid rgb(0 , 0 , 0) ; padding: 4px&quot;&gt;&lt;p style=&quot;margin: 0px&quot;&gt;&lt;font face=&quot;Helvetica Neue&quot; size=&quot;2&quot; color=&quot;#000000&quot; style=&quot;font-style: normal ; font-weight: normal ; font-stretch: normal ; font-size: 10px ; line-height: normal ; font-family: &amp;quot;helvetica neue&amp;quot; ; color: rgb(0 , 0 , 0)&quot;&gt;LC1 Port 1p3&lt;/font&gt;&lt;/p&gt;&lt;/td&gt;&lt;td valign=&quot;top&quot; style=&quot;width: 108px ; height: 14px ; border: 1px solid rgb(0 , 0 , 0) ; padding: 4px&quot;&gt;&lt;p style=&quot;margin: 0px&quot;&gt;&lt;font face=&quot;Helvetica Neue&quot; size=&quot;2&quot; color=&quot;#000000&quot; style=&quot;font-style: normal ; font-weight: normal ; font-stretch: normal ; font-size: 10px ; line-height: normal ; font-family: &amp;quot;helvetica neue&amp;quot; ; color: rgb(0 , 0 , 0)&quot;&gt;1J1-29 - A4&lt;/font&gt;&lt;/p&gt;&lt;/td&gt;&lt;td valign=&quot;top&quot; style=&quot;width: 108px ; height: 14px ; border: 1px solid rgb(0 , 0 , 0) ; padding: 4px&quot;&gt;&lt;p style=&quot;margin: 0px&quot;&gt;&lt;font face=&quot;Helvetica Neue&quot; size=&quot;2&quot; color=&quot;#000000&quot; style=&quot;font-style: normal ; font-weight: normal ; font-stretch: normal ; font-size: 10px ; line-height: normal ; font-family: &amp;quot;helvetica neue&amp;quot; ; color: rgb(0 , 0 , 0)&quot;&gt;NC&lt;/font&gt;&lt;/p&gt;&lt;/td&gt;&lt;/tr&gt;&lt;tr&gt;&lt;td valign=&quot;top&quot; style=&quot;width: 108px ; height: 13px ; background-color: rgb(239 , 239 , 239) ; border: 1px solid rgb(0 , 0 , 0) ; padding: 4px&quot;&gt;&lt;p style=&quot;margin: 0px&quot;&gt;&lt;font face=&quot;Helvetica Neue&quot; size=&quot;2&quot; color=&quot;#000000&quot; style=&quot;font-style: normal ; font-weight: normal ; font-stretch: normal ; font-size: 10px ; line-height: normal ; font-family: &amp;quot;helvetica neue&amp;quot; ; color: rgb(0 , 0 , 0)&quot;&gt;1J1-10 - D7&lt;/font&gt;&lt;/p&gt;&lt;/td&gt;&lt;td valign=&quot;top&quot; style=&quot;width: 108px ; height: 13px ; background-color: rgb(239 , 239 , 239) ; border: 1px solid rgb(0 , 0 , 0) ; padding: 4px&quot;&gt;&lt;p style=&quot;margin: 0px&quot;&gt;&lt;font face=&quot;Helvetica Neue&quot; size=&quot;2&quot; color=&quot;#000000&quot; style=&quot;font-style: normal ; font-weight: normal ; font-stretch: normal ; font-size: 10px ; line-height: normal ; font-family: &amp;quot;helvetica neue&amp;quot; ; color: rgb(0 , 0 , 0)&quot;&gt;LC2 Port 1p8&lt;/font&gt;&lt;/p&gt;&lt;/td&gt;&lt;td valign=&quot;top&quot; style=&quot;width: 108px ; height: 13px ; background-color: rgb(239 , 239 , 239) ; border: 1px solid rgb(0 , 0 , 0) ; padding: 4px&quot;&gt;&lt;p style=&quot;margin: 0px&quot;&gt;&lt;font face=&quot;Helvetica Neue&quot; size=&quot;2&quot; color=&quot;#000000&quot; style=&quot;font-style: normal ; font-weight: normal ; font-stretch: normal ; font-size: 10px ; line-height: normal ; font-family: &amp;quot;helvetica neue&amp;quot; ; color: rgb(0 , 0 , 0)&quot;&gt;1J1-30 - A5&lt;/font&gt;&lt;/p&gt;&lt;/td&gt;&lt;td valign=&quot;top&quot; style=&quot;width: 108px ; height: 13px ; background-color: rgb(239 , 239 , 239) ; border: 1px solid rgb(0 , 0 , 0) ; padding: 4px&quot;&gt;&lt;p style=&quot;margin: 0px&quot;&gt;&lt;font face=&quot;Helvetica Neue&quot; size=&quot;2&quot; color=&quot;#000000&quot; style=&quot;font-style: normal ; font-weight: normal ; font-stretch: normal ; font-size: 10px ; line-height: normal ; font-family: &amp;quot;helvetica neue&amp;quot; ; color: rgb(0 , 0 , 0)&quot;&gt;NC&lt;/font&gt;&lt;/p&gt;&lt;/td&gt;&lt;/tr&gt;&lt;tr&gt;&lt;td valign=&quot;top&quot; style=&quot;width: 108px ; height: 14px ; border: 1px solid rgb(0 , 0 , 0) ; padding: 4px&quot;&gt;&lt;p style=&quot;margin: 0px&quot;&gt;&lt;font face=&quot;Helvetica Neue&quot; size=&quot;2&quot; color=&quot;#000000&quot; style=&quot;font-style: normal ; font-weight: normal ; font-stretch: normal ; font-size: 10px ; line-height: normal ; font-family: &amp;quot;helvetica neue&amp;quot; ; color: rgb(0 , 0 , 0)&quot;&gt;1J1-11 - D6&lt;/font&gt;&lt;/p&gt;&lt;/td&gt;&lt;td valign=&quot;top&quot; style=&quot;width: 108px ; height: 14px ; border: 1px solid rgb(0 , 0 , 0) ; padding: 4px&quot;&gt;&lt;p style=&quot;margin: 0px&quot;&gt;&lt;font face=&quot;Helvetica Neue&quot; size=&quot;2&quot; color=&quot;#000000&quot; style=&quot;font-style: normal ; font-weight: normal ; font-stretch: normal ; font-size: 10px ; line-height: normal ; font-family: &amp;quot;helvetica neue&amp;quot; ; color: rgb(0 , 0 , 0)&quot;&gt;LC2 Port 1p7&lt;/font&gt;&lt;/p&gt;&lt;/td&gt;&lt;td valign=&quot;top&quot; style=&quot;width: 108px ; height: 14px ; border: 1px solid rgb(0 , 0 , 0) ; padding: 4px&quot;&gt;&lt;p style=&quot;margin: 0px&quot;&gt;&lt;font face=&quot;Helvetica Neue&quot; size=&quot;2&quot; color=&quot;#000000&quot; style=&quot;font-style: normal ; font-weight: normal ; font-stretch: normal ; font-size: 10px ; line-height: normal ; font-family: &amp;quot;helvetica neue&amp;quot; ; color: rgb(0 , 0 , 0)&quot;&gt;1J1-31 - A6&lt;/font&gt;&lt;/p&gt;&lt;/td&gt;&lt;td valign=&quot;top&quot; style=&quot;width: 108px ; height: 14px ; border: 1px solid rgb(0 , 0 , 0) ; padding: 4px&quot;&gt;&lt;p style=&quot;margin: 0px&quot;&gt;&lt;font face=&quot;Helvetica Neue&quot; size=&quot;2&quot; color=&quot;#000000&quot; style=&quot;font-style: normal ; font-weight: normal ; font-stretch: normal ; font-size: 10px ; line-height: normal ; font-family: &amp;quot;helvetica neue&amp;quot; ; color: rgb(0 , 0 , 0)&quot;&gt;NC&lt;/font&gt;&lt;/p&gt;&lt;/td&gt;&lt;/tr&gt;&lt;tr&gt;&lt;td valign=&quot;top&quot; style=&quot;width: 108px ; height: 14px ; background-color: rgb(239 , 239 , 239) ; border: 1px solid rgb(0 , 0 , 0) ; padding: 4px&quot;&gt;&lt;p style=&quot;margin: 0px&quot;&gt;&lt;font face=&quot;Helvetica Neue&quot; size=&quot;2&quot; color=&quot;#000000&quot; style=&quot;font-style: normal ; font-weight: normal ; font-stretch: normal ; font-size: 10px ; line-height: normal ; font-family: &amp;quot;helvetica neue&amp;quot; ; color: rgb(0 , 0 , 0)&quot;&gt;1J1-12 - D5&lt;/font&gt;&lt;/p&gt;&lt;/td&gt;&lt;td valign=&quot;top&quot; style=&quot;width: 108px ; height: 14px ; background-color: rgb(239 , 239 , 239) ; border: 1px solid rgb(0 , 0 , 0) ; padding: 4px&quot;&gt;&lt;p style=&quot;margin: 0px&quot;&gt;&lt;font face=&quot;Helvetica Neue&quot; size=&quot;2&quot; color=&quot;#000000&quot; style=&quot;font-style: normal ; font-weight: normal ; font-stretch: normal ; font-size: 10px ; line-height: normal ; font-family: &amp;quot;helvetica neue&amp;quot; ; color: rgb(0 , 0 , 0)&quot;&gt;LC2 Port 1p6&lt;/font&gt;&lt;/p&gt;&lt;/td&gt;&lt;td valign=&quot;top&quot; style=&quot;width: 108px ; height: 14px ; background-color: rgb(239 , 239 , 239) ; border: 1px solid rgb(0 , 0 , 0) ; padding: 4px&quot;&gt;&lt;p style=&quot;margin: 0px&quot;&gt;&lt;font face=&quot;Helvetica Neue&quot; size=&quot;2&quot; color=&quot;#000000&quot; style=&quot;font-style: normal ; font-weight: normal ; font-stretch: normal ; font-size: 10px ; line-height: normal ; font-family: &amp;quot;helvetica neue&amp;quot; ; color: rgb(0 , 0 , 0)&quot;&gt;1J1-32 - A7&lt;/font&gt;&lt;/p&gt;&lt;/td&gt;&lt;td valign=&quot;top&quot; style=&quot;width: 108px ; height: 14px ; background-color: rgb(239 , 239 , 239) ; border: 1px solid rgb(0 , 0 , 0) ; padding: 4px&quot;&gt;&lt;p style=&quot;margin: 0px&quot;&gt;&lt;font face=&quot;Helvetica Neue&quot; size=&quot;2&quot; color=&quot;#000000&quot; style=&quot;font-style: normal ; font-weight: normal ; font-stretch: normal ; font-size: 10px ; line-height: normal ; font-family: &amp;quot;helvetica neue&amp;quot; ; color: rgb(0 , 0 , 0)&quot;&gt;NC&lt;/font&gt;&lt;/p&gt;&lt;/td&gt;&lt;/tr&gt;&lt;tr&gt;&lt;td valign=&quot;top&quot; style=&quot;width: 108px ; height: 14px ; border: 1px solid rgb(0 , 0 , 0) ; padding: 4px&quot;&gt;&lt;p style=&quot;margin: 0px&quot;&gt;&lt;font face=&quot;Helvetica Neue&quot; size=&quot;2&quot; color=&quot;#000000&quot; style=&quot;font-style: normal ; font-weight: normal ; font-stretch: normal ; font-size: 10px ; line-height: normal ; font-family: &amp;quot;helvetica neue&amp;quot; ; color: rgb(0 , 0 , 0)&quot;&gt;1J1-13 - A10&lt;/font&gt;&lt;/p&gt;&lt;/td&gt;&lt;td valign=&quot;top&quot; style=&quot;width: 108px ; height: 14px ; border: 1px solid rgb(0 , 0 , 0) ; padding: 4px&quot;&gt;&lt;p style=&quot;margin: 0px&quot;&gt;&lt;font face=&quot;Helvetica Neue&quot; size=&quot;2&quot; color=&quot;#000000&quot; style=&quot;font-style: normal ; font-weight: normal ; font-stretch: normal ; font-size: 10px ; line-height: normal ; font-family: &amp;quot;helvetica neue&amp;quot; ; color: rgb(0 , 0 , 0)&quot;&gt;LC2 Port 1p1&lt;/font&gt;&lt;/p&gt;&lt;/td&gt;&lt;td valign=&quot;top&quot; style=&quot;width: 108px ; height: 14px ; border: 1px solid rgb(0 , 0 , 0) ; padding: 4px&quot;&gt;&lt;p style=&quot;margin: 0px&quot;&gt;&lt;font face=&quot;Helvetica Neue&quot; size=&quot;2&quot; color=&quot;#000000&quot; style=&quot;font-style: normal ; font-weight: normal ; font-stretch: normal ; font-size: 10px ; line-height: normal ; font-family: &amp;quot;helvetica neue&amp;quot; ; color: rgb(0 , 0 , 0)&quot;&gt;1J1-33 - A8&lt;/font&gt;&lt;/p&gt;&lt;/td&gt;&lt;td valign=&quot;top&quot; style=&quot;width: 108px ; height: 14px ; border: 1px solid rgb(0 , 0 , 0) ; padding: 4px&quot;&gt;&lt;p style=&quot;margin: 0px&quot;&gt;&lt;font face=&quot;Helvetica Neue&quot; size=&quot;2&quot; color=&quot;#000000&quot; style=&quot;font-style: normal ; font-weight: normal ; font-stretch: normal ; font-size: 10px ; line-height: normal ; font-family: &amp;quot;helvetica neue&amp;quot; ; color: rgb(0 , 0 , 0)&quot;&gt;NC&lt;/font&gt;&lt;/p&gt;&lt;/td&gt;&lt;/tr&gt;&lt;tr&gt;&lt;td valign=&quot;top&quot; style=&quot;width: 108px ; height: 13px ; background-color: rgb(239 , 239 , 239) ; border: 1px solid rgb(0 , 0 , 0) ; padding: 4px&quot;&gt;&lt;p style=&quot;margin: 0px&quot;&gt;&lt;font face=&quot;Helvetica Neue&quot; size=&quot;2&quot; color=&quot;#000000&quot; style=&quot;font-style: normal ; font-weight: normal ; font-stretch: normal ; font-size: 10px ; line-height: normal ; font-family: &amp;quot;helvetica neue&amp;quot; ; color: rgb(0 , 0 , 0)&quot;&gt;1J1-14 - D4&lt;/font&gt;&lt;/p&gt;&lt;/td&gt;&lt;td valign=&quot;top&quot; style=&quot;width: 108px ; height: 13px ; background-color: rgb(239 , 239 , 239) ; border: 1px solid rgb(0 , 0 , 0) ; padding: 4px&quot;&gt;&lt;p style=&quot;margin: 0px&quot;&gt;&lt;font face=&quot;Helvetica Neue&quot; size=&quot;2&quot; color=&quot;#000000&quot; style=&quot;font-style: normal ; font-weight: normal ; font-stretch: normal ; font-size: 10px ; line-height: normal ; font-family: &amp;quot;helvetica neue&amp;quot; ; color: rgb(0 , 0 , 0)&quot;&gt;LC2 Port 1p5&lt;/font&gt;&lt;/p&gt;&lt;/td&gt;&lt;td valign=&quot;top&quot; style=&quot;width: 108px ; height: 13px ; background-color: rgb(239 , 239 , 239) ; border: 1px solid rgb(0 , 0 , 0) ; padding: 4px&quot;&gt;&lt;p style=&quot;margin: 0px&quot;&gt;&lt;font face=&quot;Helvetica Neue&quot; size=&quot;2&quot; color=&quot;#000000&quot; style=&quot;font-style: normal ; font-weight: normal ; font-stretch: normal ; font-size: 10px ; line-height: normal ; font-family: &amp;quot;helvetica neue&amp;quot; ; color: rgb(0 , 0 , 0)&quot;&gt;1J1-34 - A11&lt;/font&gt;&lt;/p&gt;&lt;/td&gt;&lt;td valign=&quot;top&quot; style=&quot;width: 108px ; height: 13px ; background-color: rgb(239 , 239 , 239) ; border: 1px solid rgb(0 , 0 , 0) ; padding: 4px&quot;&gt;&lt;p style=&quot;margin: 0px&quot;&gt;&lt;font face=&quot;Helvetica Neue&quot; size=&quot;2&quot; color=&quot;#000000&quot; style=&quot;font-style: normal ; font-weight: normal ; font-stretch: normal ; font-size: 10px ; line-height: normal ; font-family: &amp;quot;helvetica neue&amp;quot; ; color: rgb(0 , 0 , 0)&quot;&gt;NC&lt;/font&gt;&lt;/p&gt;&lt;/td&gt;&lt;/tr&gt;&lt;tr&gt;&lt;td valign=&quot;top&quot; style=&quot;width: 108px ; height: 14px ; border: 1px solid rgb(0 , 0 , 0) ; padding: 4px&quot;&gt;&lt;p style=&quot;margin: 0px&quot;&gt;&lt;font face=&quot;Helvetica Neue&quot; size=&quot;2&quot; color=&quot;#000000&quot; style=&quot;font-style: normal ; font-weight: normal ; font-stretch: normal ; font-size: 10px ; line-height: normal ; font-family: &amp;quot;helvetica neue&amp;quot; ; color: rgb(0 , 0 , 0)&quot;&gt;1J1-15 - D3&lt;/font&gt;&lt;/p&gt;&lt;/td&gt;&lt;td valign=&quot;top&quot; style=&quot;width: 108px ; height: 14px ; border: 1px solid rgb(0 , 0 , 0) ; padding: 4px&quot;&gt;&lt;p style=&quot;margin: 0px&quot;&gt;&lt;font face=&quot;Helvetica Neue&quot; size=&quot;2&quot; color=&quot;#000000&quot; style=&quot;font-style: normal ; font-weight: normal ; font-stretch: normal ; font-size: 10px ; line-height: normal ; font-family: &amp;quot;helvetica neue&amp;quot; ; color: rgb(0 , 0 , 0)&quot;&gt;LC2 Port 1p4&lt;/font&gt;&lt;/p&gt;&lt;/td&gt;&lt;td valign=&quot;top&quot; style=&quot;width: 108px ; height: 14px ; border: 1px solid rgb(0 , 0 , 0) ; padding: 4px&quot;&gt;&lt;p style=&quot;margin: 0px&quot;&gt;&lt;font face=&quot;Helvetica Neue&quot; size=&quot;2&quot; color=&quot;#000000&quot; style=&quot;font-style: normal ; font-weight: normal ; font-stretch: normal ; font-size: 10px ; line-height: normal ; font-family: &amp;quot;helvetica neue&amp;quot; ; color: rgb(0 , 0 , 0)&quot;&gt;1J1-35 - A15&lt;/font&gt;&lt;/p&gt;&lt;/td&gt;&lt;td valign=&quot;top&quot; style=&quot;width: 108px ; height: 14px ; border: 1px solid rgb(0 , 0 , 0) ; padding: 4px&quot;&gt;&lt;p style=&quot;margin: 0px&quot;&gt;&lt;font face=&quot;Helvetica Neue&quot; size=&quot;2&quot; color=&quot;#000000&quot; style=&quot;font-style: normal ; font-weight: normal ; font-stretch: normal ; font-size: 10px ; line-height: normal ; font-family: &amp;quot;helvetica neue&amp;quot; ; color: rgb(0 , 0 , 0)&quot;&gt;NC&lt;/font&gt;&lt;/p&gt;&lt;/td&gt;&lt;/tr&gt;&lt;tr&gt;&lt;td valign=&quot;top&quot; style=&quot;width: 108px ; height: 14px ; background-color: rgb(239 , 239 , 239) ; border: 1px solid rgb(0 , 0 , 0) ; padding: 4px&quot;&gt;&lt;p style=&quot;margin: 0px&quot;&gt;&lt;font face=&quot;Helvetica Neue&quot; size=&quot;2&quot; color=&quot;#000000&quot; style=&quot;font-style: normal ; font-weight: normal ; font-stretch: normal ; font-size: 10px ; line-height: normal ; font-family: &amp;quot;helvetica neue&amp;quot; ; color: rgb(0 , 0 , 0)&quot;&gt;1J1-16 - D2&lt;/font&gt;&lt;/p&gt;&lt;/td&gt;&lt;td valign=&quot;top&quot; style=&quot;width: 108px ; height: 14px ; background-color: rgb(239 , 239 , 239) ; border: 1px solid rgb(0 , 0 , 0) ; padding: 4px&quot;&gt;&lt;p style=&quot;margin: 0px&quot;&gt;&lt;font face=&quot;Helvetica Neue&quot; size=&quot;2&quot; color=&quot;#000000&quot; style=&quot;font-style: normal ; font-weight: normal ; font-stretch: normal ; font-size: 10px ; line-height: normal ; font-family: &amp;quot;helvetica neue&amp;quot; ; color: rgb(0 , 0 , 0)&quot;&gt;LC2 Port 1p3&lt;/font&gt;&lt;/p&gt;&lt;/td&gt;&lt;td valign=&quot;top&quot; style=&quot;width: 108px ; height: 14px ; background-color: rgb(239 , 239 , 239) ; border: 1px solid rgb(0 , 0 , 0) ; padding: 4px&quot;&gt;&lt;p style=&quot;margin: 0px&quot;&gt;&lt;font face=&quot;Helvetica Neue&quot; size=&quot;2&quot; color=&quot;#000000&quot; style=&quot;font-style: normal ; font-weight: normal ; font-stretch: normal ; font-size: 10px ; line-height: normal ; font-family: &amp;quot;helvetica neue&amp;quot; ; color: rgb(0 , 0 , 0)&quot;&gt;1J1-36 - NC&lt;/font&gt;&lt;/p&gt;&lt;/td&gt;&lt;td valign=&quot;top&quot; style=&quot;width: 108px ; height: 14px ; background-color: rgb(239 , 239 , 239) ; border: 1px solid rgb(0 , 0 , 0) ; padding: 4px&quot;&gt;&lt;p style=&quot;margin: 0px&quot;&gt;&lt;font face=&quot;Helvetica Neue&quot; size=&quot;2&quot; color=&quot;#000000&quot; style=&quot;font-style: normal ; font-weight: normal ; font-stretch: normal ; font-size: 10px ; line-height: normal ; font-family: &amp;quot;helvetica neue&amp;quot; ; color: rgb(0 , 0 , 0)&quot;&gt;NC&lt;/font&gt;&lt;/p&gt;&lt;/td&gt;&lt;/tr&gt;&lt;tr&gt;&lt;td valign=&quot;top&quot; style=&quot;width: 108px ; height: 14px ; border: 1px solid rgb(0 , 0 , 0) ; padding: 4px&quot;&gt;&lt;p style=&quot;margin: 0px&quot;&gt;&lt;font face=&quot;Helvetica Neue&quot; size=&quot;2&quot; color=&quot;#000000&quot; style=&quot;font-style: normal ; font-weight: normal ; font-stretch: normal ; font-size: 10px ; line-height: normal ; font-family: &amp;quot;helvetica neue&amp;quot; ; color: rgb(0 , 0 , 0)&quot;&gt;1J1-17 - D1&lt;/font&gt;&lt;/p&gt;&lt;/td&gt;&lt;td valign=&quot;top&quot; style=&quot;width: 108px ; height: 14px ; border: 1px solid rgb(0 , 0 , 0) ; padding: 4px&quot;&gt;&lt;p style=&quot;margin: 0px&quot;&gt;&lt;font face=&quot;Helvetica Neue&quot; size=&quot;2&quot; color=&quot;#000000&quot; style=&quot;font-style: normal ; font-weight: normal ; font-stretch: normal ; font-size: 10px ; line-height: normal ; font-family: &amp;quot;helvetica neue&amp;quot; ; color: rgb(0 , 0 , 0)&quot;&gt;LC2 Port 1p2&lt;/font&gt;&lt;/p&gt;&lt;/td&gt;&lt;td valign=&quot;top&quot; style=&quot;width: 108px ; height: 14px ; border: 1px solid rgb(0 , 0 , 0) ; padding: 4px&quot;&gt;&lt;p style=&quot;margin: 0px&quot;&gt;&lt;font face=&quot;Helvetica Neue&quot; size=&quot;2&quot; color=&quot;#000000&quot; style=&quot;font-style: normal ; font-weight: normal ; font-stretch: normal ; font-size: 10px ; line-height: normal ; font-family: &amp;quot;helvetica neue&amp;quot; ; color: rgb(0 , 0 , 0)&quot;&gt;1J1-37 - Blanking&lt;/font&gt;&lt;/p&gt;&lt;/td&gt;&lt;td valign=&quot;top&quot; style=&quot;width: 108px ; height: 14px ; border: 1px solid rgb(0 , 0 , 0) ; padding: 4px&quot;&gt;&lt;p style=&quot;margin: 0px&quot;&gt;&lt;font face=&quot;Helvetica Neue&quot; size=&quot;2&quot; color=&quot;#000000&quot; style=&quot;font-style: normal ; font-weight: normal ; font-stretch: normal ; font-size: 10px ; line-height: normal ; font-family: &amp;quot;helvetica neue&amp;quot; ; color: rgb(0 , 0 , 0)&quot;&gt;LC1 Port 2p2&lt;/font&gt;&lt;/p&gt;&lt;/td&gt;&lt;/tr&gt;&lt;tr&gt;&lt;td valign=&quot;top&quot; style=&quot;width: 108px ; height: 13px ; background-color: rgb(239 , 239 , 239) ; border: 1px solid rgb(0 , 0 , 0) ; padding: 4px&quot;&gt;&lt;p style=&quot;margin: 0px&quot;&gt;&lt;font face=&quot;Helvetica Neue&quot; size=&quot;2&quot; color=&quot;#000000&quot; style=&quot;font-style: normal ; font-weight: normal ; font-stretch: normal ; font-size: 10px ; line-height: normal ; font-family: &amp;quot;helvetica neue&amp;quot; ; color: rgb(0 , 0 , 0)&quot;&gt;1J1-18 - D0&lt;/font&gt;&lt;/p&gt;&lt;/td&gt;&lt;td valign=&quot;top&quot; style=&quot;width: 108px ; height: 13px ; background-color: rgb(239 , 239 , 239) ; border: 1px solid rgb(0 , 0 , 0) ; padding: 4px&quot;&gt;&lt;p style=&quot;margin: 0px&quot;&gt;&lt;font face=&quot;Helvetica Neue&quot; size=&quot;2&quot; color=&quot;#000000&quot; style=&quot;font-style: normal ; font-weight: normal ; font-stretch: normal ; font-size: 10px ; line-height: normal ; font-family: &amp;quot;helvetica neue&amp;quot; ; color: rgb(0 , 0 , 0)&quot;&gt;LC2 Port 1p1&lt;/font&gt;&lt;/p&gt;&lt;/td&gt;&lt;td valign=&quot;top&quot; style=&quot;width: 108px ; height: 13px ; background-color: rgb(239 , 239 , 239) ; border: 1px solid rgb(0 , 0 , 0) ; padding: 4px&quot;&gt;&lt;p style=&quot;margin: 0px&quot;&gt;&lt;font face=&quot;Helvetica Neue&quot; size=&quot;2&quot; color=&quot;#000000&quot; style=&quot;font-style: normal ; font-weight: normal ; font-stretch: normal ; font-size: 10px ; line-height: normal ; font-family: &amp;quot;helvetica neue&amp;quot; ; color: rgb(0 , 0 , 0)&quot;&gt;1J1-38 - NC&lt;/font&gt;&lt;/p&gt;&lt;/td&gt;&lt;td valign=&quot;top&quot; style=&quot;width: 108px ; height: 13px ; background-color: rgb(239 , 239 , 239) ; border: 1px solid rgb(0 , 0 , 0) ; padding: 4px&quot;&gt;&lt;p style=&quot;margin: 0px&quot;&gt;&lt;font face=&quot;Helvetica Neue&quot; size=&quot;2&quot; color=&quot;#000000&quot; style=&quot;font-style: normal ; font-weight: normal ; font-stretch: normal ; font-size: 10px ; line-height: normal ; font-family: &amp;quot;helvetica neue&amp;quot; ; color: rgb(0 , 0 , 0)&quot;&gt;NC&lt;/font&gt;&lt;/p&gt;&lt;/td&gt;&lt;/tr&gt;&lt;tr&gt;&lt;td valign=&quot;top&quot; style=&quot;width: 108px ; height: 14px ; border: 1px solid rgb(0 , 0 , 0) ; padding: 4px&quot;&gt;&lt;p style=&quot;margin: 0px&quot;&gt;&lt;font face=&quot;Helvetica Neue&quot; size=&quot;2&quot; color=&quot;#000000&quot; style=&quot;font-style: normal ; font-weight: normal ; font-stretch: normal ; font-size: 10px ; line-height: normal ; font-family: &amp;quot;helvetica neue&amp;quot; ; color: rgb(0 , 0 , 0)&quot;&gt;1J1-19 - RESET&lt;/font&gt;&lt;/p&gt;&lt;/td&gt;&lt;td valign=&quot;top&quot; style=&quot;width: 108px ; height: 14px ; border: 1px solid rgb(0 , 0 , 0) ; padding: 4px&quot;&gt;&lt;p style=&quot;margin: 0px&quot;&gt;&lt;font face=&quot;Helvetica Neue&quot; size=&quot;2&quot; color=&quot;#000000&quot; style=&quot;font-style: normal ; font-weight: normal ; font-stretch: normal ; font-size: 10px ; line-height: normal ; font-family: &amp;quot;helvetica neue&amp;quot; ; color: rgb(0 , 0 , 0)&quot;&gt;LC1 Port 1p4&lt;/font&gt;&lt;/p&gt;&lt;/td&gt;&lt;td valign=&quot;top&quot; style=&quot;width: 108px ; height: 14px ; border: 1px solid rgb(0 , 0 , 0) ; padding: 4px&quot;&gt;&lt;p style=&quot;margin: 0px&quot;&gt;&lt;font face=&quot;Helvetica Neue&quot; size=&quot;2&quot; color=&quot;#000000&quot; style=&quot;font-style: normal ; font-weight: normal ; font-stretch: normal ; font-size: 10px ; line-height: normal ; font-family: &amp;quot;helvetica neue&amp;quot; ; color: rgb(0 , 0 , 0)&quot;&gt;1J1-39 - GND&lt;/font&gt;&lt;/p&gt;&lt;/td&gt;&lt;td valign=&quot;top&quot; style=&quot;width: 108px ; height: 14px ; border: 1px solid rgb(0 , 0 , 0) ; padding: 4px&quot;&gt;&lt;p style=&quot;margin: 0px&quot;&gt;&lt;font face=&quot;Helvetica Neue&quot; size=&quot;2&quot; color=&quot;#000000&quot; style=&quot;font-style: normal ; font-weight: normal ; font-stretch: normal ; font-size: 10px ; line-height: normal ; font-family: &amp;quot;helvetica neue&amp;quot; ; color: rgb(0 , 0 , 0)&quot;&gt;GND Plane&lt;/font&gt;&lt;/p&gt;&lt;/td&gt;&lt;/tr&gt;&lt;tr&gt;&lt;td valign=&quot;top&quot; style=&quot;width: 108px ; height: 14px ; background-color: rgb(239 , 239 , 239) ; border: 1px solid rgb(0 , 0 , 0) ; padding: 4px&quot;&gt;&lt;p style=&quot;margin: 0px&quot;&gt;&lt;font face=&quot;Helvetica Neue&quot; size=&quot;2&quot; color=&quot;#000000&quot; style=&quot;font-style: normal ; font-weight: normal ; font-stretch: normal ; font-size: 10px ; line-height: normal ; font-family: &amp;quot;helvetica neue&amp;quot; ; color: rgb(0 , 0 , 0)&quot;&gt;1J1-20 - A1&lt;/font&gt;&lt;/p&gt;&lt;/td&gt;&lt;td valign=&quot;top&quot; style=&quot;width: 108px ; height: 14px ; background-color: rgb(239 , 239 , 239) ; border: 1px solid rgb(0 , 0 , 0) ; padding: 4px&quot;&gt;&lt;p style=&quot;margin: 0px&quot;&gt;&lt;font face=&quot;Helvetica Neue&quot; size=&quot;2&quot; color=&quot;#000000&quot; style=&quot;font-style: normal ; font-weight: normal ; font-stretch: normal ; font-size: 10px ; line-height: normal ; font-family: &amp;quot;helvetica neue&amp;quot; ; color: rgb(0 , 0 , 0)&quot;&gt;LC1 Port 1p5&lt;/font&gt;&lt;/p&gt;&lt;/td&gt;&lt;td valign=&quot;top&quot; style=&quot;width: 108px ; height: 14px ; background-color: rgb(239 , 239 , 239) ; border: 1px solid rgb(0 , 0 , 0) ; padding: 4px&quot;&gt;&lt;p style=&quot;margin: 0px&quot;&gt;&lt;font face=&quot;Helvetica Neue&quot; size=&quot;2&quot; color=&quot;#000000&quot; style=&quot;font-style: normal ; font-weight: normal ; font-stretch: normal ; font-size: 10px ; line-height: normal ; font-family: &amp;quot;helvetica neue&amp;quot; ; color: rgb(0 , 0 , 0)&quot;&gt;1J1-40 - GND&lt;/font&gt;&lt;/p&gt;&lt;/td&gt;&lt;td valign=&quot;top&quot; style=&quot;width: 108px ; height: 14px ; background-color: rgb(239 , 239 , 239) ; border: 1px solid rgb(0 , 0 , 0) ; padding: 4px&quot;&gt;&lt;p style=&quot;margin: 0px&quot;&gt;&lt;font face=&quot;Helvetica Neue&quot; size=&quot;2&quot; color=&quot;#000000&quot; style=&quot;font-style: normal ; font-weight: normal ; font-stretch: normal ; font-size: 10px ; line-height: normal ; font-family: &amp;quot;helvetica neue&amp;quot; ; color: rgb(0 , 0 , 0)&quot;&gt;GND Plane&lt;/font&gt;&lt;/p&gt;&lt;/td&gt;&lt;/tr&gt;&lt;/tbody&gt;&lt;/table&gt;" style="text;whiteSpace=wrap;html=1;fontSize=14;fillColor=#e1d5e7;strokeColor=#9673a6;verticalAlign=bottom;" vertex="1" parent="1">
          <mxGeometry x="47.5" y="1330" width="490" height="620" as="geometry" />
        </mxCell>
        <mxCell id="7ul09Yu6RcDukH9-tw2m-165" value="Detailed Pin Assignments for 1J1 - 40 Pin header" style="text;html=1;strokeColor=none;fillColor=none;align=center;verticalAlign=middle;whiteSpace=wrap;rounded=0;fontSize=14;" vertex="1" parent="1">
          <mxGeometry x="30" y="1360" width="380" height="20" as="geometry" />
        </mxCell>
      </root>
    </mxGraphModel>
  </diagram>
</mxfile>
